<?xml version="1.0" encoding="UTF-8"?>
<svg viewBox="0 0 700.00012 108.47688" xmlns="http://www.w3.org/2000/svg">
 <g transform="matrix(.27193 0 0 .27193 154.51 -366.29)">
  <g transform="translate(1286)">
   <g transform="translate(164,-10)">
    <g transform="translate(-24,138)">
     <path d="m309.13 1321.9c-107.48 63.341-169.23 157.98-137.84 211.24s144.09 45.082 251.57-18.259 169.23-157.98 137.84-211.24-144.09-45.082-251.57 18.259zm3.0464 5.1691c95.96-56.555 196.58-63.856 224.61-16.3s-27.103 132.05-123.06 188.6-196.58 63.856-224.61 16.3 27.103-132.05 123.06-188.6z"/>
     <path d="m422.87 1321.9c107.48 63.341 169.23 157.98 137.84 211.24s-144.09 45.082-251.57-18.259-169.23-157.98-137.84-211.24 144.09-45.082 251.57 18.259zm-3.0464 5.1691c-95.96-56.555-196.58-63.856-224.61-16.3s27.103 132.05 123.06 188.6 196.58 63.856 224.61 16.3-27.103-132.05-123.06-188.6z"/>
     <path d="m264.03 1297.5c-28.954 1.1471-46.023 10.728-53.344 23.063-6.5939 11.11-7.5704 27.841 3.5312 51.625l2.9375-2.8126c26.932-25.747 58.192-48.667 91.75-67.531-16.715-3.3932-31.919-4.857-44.875-4.3438z"/>
     <path d="m476.66 1534.1c28.954-1.1471 46.023-10.728 53.344-23.063 6.5939-11.11 7.5704-27.841-3.5312-51.625l-2.9375 2.8126c-26.932 25.747-58.192 48.667-91.75 67.531 16.715 3.3932 31.919 4.857 44.875 4.3438z"/>
    </g>
    <path d="m342.69 1449.4-4.8125 1.9062c-12.34 4.8743-47.748 24.031-63.344 34.5-17.188 11.537-36.545 27.472-50.844 41.094-7.1492 6.811-13.073 13.1-16.688 17.656-1.1979 1.5102-1.6625 2.3364-2.2812 3.3126 0.77618 1.0573 0.96563 1.3578 2.2812 2.9374 2.4985 3 5.7928 6.7232 9.4062 10.656 7.2269 7.8662 15.79 16.629 22.125 22.406 24.315 22.174 63.833 48.525 92.812 61.937 3.3272 1.54 6.544 2.9393 8.9375 3.9376 0.67633 0.282 1.0742 0.4192 1.5938 0.625 0.63552-0.2346 1.217-0.4191 2.1562-0.8126 2.782-1.1654 6.6236-2.9453 10.938-5.0624 8.6277-4.2343 19.202-9.859 27.938-15 32.99-19.415 65.866-46.061 86.906-70.219 4.2115-4.8355 7.313-8.3221 8.875-10.438 0.54735-0.7413 0.62271-0.9204 0.78125-1.1875-0.22657-0.3678-0.48808-0.8308-1.2812-1.7812-1.9252-2.3069-5.4217-5.8722-10.188-10.844-29.781-31.067-62.481-54.717-104.47-75.375l-20.844-10.25zm-138.88 99.812c-0.0368 0.0681-0.22106 0.2859-0.25 0.3437-0.2109 0.4214 0.13646 0.3645 0.25-0.3437z"/>
    <path d="m342.41 1472.1-3.7235 1.4749c-9.5479 3.7713-36.943 18.593-49.01 26.693-13.299 8.9265-28.276 21.255-39.338 31.795-5.5314 5.2698-10.115 10.136-12.911 13.661-0.92682 1.1683-1.2863 1.8076-1.765 2.5629 0.60053 0.818 0.74711 1.0505 1.765 2.2727 1.9331 2.3211 4.482 5.2018 7.2777 8.2449 5.5915 6.0861 12.217 12.866 17.118 17.336 18.813 17.156 49.388 37.544 71.81 47.922 2.5743 1.1914 5.0631 2.2741 6.915 3.0465 0.52329 0.2182 0.83113 0.3244 1.2331 0.4836 0.49171-0.1815 0.94161-0.3243 1.6683-0.6288 2.1525-0.9016 5.1248-2.2787 8.4624-3.9168 6.6753-3.2761 14.857-7.628 21.616-11.606 25.524-15.022 50.961-35.638 67.24-54.329 3.2585-3.7412 5.6582-6.4389 6.8667-8.0756 0.42349-0.5736 0.48181-0.7121 0.60447-0.9188-0.17531-0.2845-0.37763-0.6427-0.99132-1.3781-1.4895-1.7849-4.1948-4.5434-7.8822-8.39-23.042-24.037-48.342-42.335-80.828-58.318l-16.127-7.9305zm-107.45 77.226c-0.02847 0.0527-0.17104 0.2213-0.19342 0.2659-0.16318 0.3261 0.10557 0.282 0.19342-0.2659z" fill="#fff"/>
    <path d="m342.15 1494-2.6772 1.0604c-6.8649 2.7116-26.562 13.369-35.238 19.192-9.5617 6.4182-20.33 15.283-28.284 22.86-3.9771 3.789-7.2726 7.2875-9.2832 9.8222-0.66638 0.84-0.92485 1.2997-1.269 1.8427 0.43178 0.5882 0.53717 0.7553 1.269 1.6341 1.3899 1.6689 3.2225 3.7401 5.2327 5.9281 4.0203 4.3759 8.7841 9.2508 12.308 12.464 13.527 12.335 35.51 26.994 51.631 34.456 1.8509 0.8566 3.6404 1.635 4.9719 2.1904 0.37625 0.1569 0.59758 0.2332 0.8866 0.3477 0.35354-0.1305 0.67702-0.2332 1.1995-0.4521 1.5476-0.6483 3.6847-1.6384 6.0845-2.8162 4.7996-2.3555 10.682-5.4845 15.542-8.3444 18.352-10.801 36.641-25.624 48.346-39.062 2.3429-2.69 4.0682-4.6296 4.9371-5.8064 0.30449-0.4124 0.34642-0.512 0.43461-0.6606-0.12605-0.2046-0.27152-0.4621-0.71276-0.9909-1.071-1.2833-3.0161-3.2667-5.6673-6.0324-16.567-17.282-34.758-30.439-58.116-41.931l-11.595-5.702zm-77.256 55.525c-0.02047 0.0379-0.12298 0.1591-0.13907 0.1912-0.11733 0.2344 0.07591 0.2027 0.13907-0.1912z"/>
    <path d="m217.67 1663.4c-23.166-5.2791-36.002-21.189-34.286-42.496 0.66776-8.2917 5.7692-23.202 10.933-31.954l2.6171-4.4358 12.661 13.091c19.638 20.305 43.675 38.377 69.375 52.159 5.4718 2.9342 9.9592 5.7187 9.972 6.1878 0.02429 0.8874-5.4393 2.5032-20.608 6.0945-13.016 3.0817-39.925 3.8003-50.664 1.3531h4e-5z"/>
    <path d="m464.92 1505.5c-20.376-19.523-45.148-36.854-71.494-50.019-6.0255-3.011-10.956-5.7085-10.956-5.9945s4.0336-1.7176 8.9636-3.1816c32.746-9.7243 59.093-10.444 77.352-2.1133 20.014 9.1312 26.82 26.614 19.441 49.934-1.9178 6.061-5.135 13.794-7.1493 17.184l-3.6622 6.1636-12.496-11.973z"/>
   </g>
   <g transform="translate(-268,-10)">
    <g transform="translate(-24,138)">
     <path d="m309.13 1321.9c-107.48 63.341-169.23 157.98-137.84 211.24s144.09 45.082 251.57-18.259 169.23-157.98 137.84-211.24-144.09-45.082-251.57 18.259zm3.0464 5.1691c95.96-56.555 196.58-63.856 224.61-16.3s-27.103 132.05-123.06 188.6-196.58 63.856-224.61 16.3 27.103-132.05 123.06-188.6z"/>
     <path d="m422.87 1321.9c107.48 63.341 169.23 157.98 137.84 211.24s-144.09 45.082-251.57-18.259-169.23-157.98-137.84-211.24 144.09-45.082 251.57 18.259zm-3.0464 5.1691c-95.96-56.555-196.58-63.856-224.61-16.3s27.103 132.05 123.06 188.6 196.58 63.856 224.61 16.3-27.103-132.05-123.06-188.6z"/>
     <path d="m264.03 1297.5c-28.954 1.1471-46.023 10.728-53.344 23.063-6.5939 11.11-7.5704 27.841 3.5312 51.625l2.9375-2.8126c26.932-25.747 58.192-48.667 91.75-67.531-16.715-3.3932-31.919-4.857-44.875-4.3438z"/>
     <path d="m476.66 1534.1c28.954-1.1471 46.023-10.728 53.344-23.063 6.5939-11.11 7.5704-27.841-3.5312-51.625l-2.9375 2.8126c-26.932 25.747-58.192 48.667-91.75 67.531 16.715 3.3932 31.919 4.857 44.875 4.3438z"/>
    </g>
    <path d="m342.69 1449.4-4.8125 1.9062c-12.34 4.8743-47.748 24.031-63.344 34.5-17.188 11.537-36.545 27.472-50.844 41.094-7.1492 6.811-13.073 13.1-16.688 17.656-1.1979 1.5102-1.6625 2.3364-2.2812 3.3126 0.77618 1.0573 0.96563 1.3578 2.2812 2.9374 2.4985 3 5.7928 6.7232 9.4062 10.656 7.2269 7.8662 15.79 16.629 22.125 22.406 24.315 22.174 63.833 48.525 92.812 61.937 3.3272 1.54 6.544 2.9393 8.9375 3.9376 0.67633 0.282 1.0742 0.4192 1.5938 0.625 0.63552-0.2346 1.217-0.4191 2.1562-0.8126 2.782-1.1654 6.6236-2.9453 10.938-5.0624 8.6277-4.2343 19.202-9.859 27.938-15 32.99-19.415 65.866-46.061 86.906-70.219 4.2115-4.8355 7.313-8.3221 8.875-10.438 0.54735-0.7413 0.62271-0.9204 0.78125-1.1875-0.22657-0.3678-0.48808-0.8308-1.2812-1.7812-1.9252-2.3069-5.4217-5.8722-10.188-10.844-29.781-31.067-62.481-54.717-104.47-75.375l-20.844-10.25zm-138.88 99.812c-0.0368 0.0681-0.22106 0.2859-0.25 0.3437-0.2109 0.4214 0.13646 0.3645 0.25-0.3437z"/>
    <path d="m342.41 1472.1-3.7235 1.4749c-9.5479 3.7713-36.943 18.593-49.01 26.693-13.299 8.9265-28.276 21.255-39.338 31.795-5.5314 5.2698-10.115 10.136-12.911 13.661-0.92682 1.1683-1.2863 1.8076-1.765 2.5629 0.60053 0.818 0.74711 1.0505 1.765 2.2727 1.9331 2.3211 4.482 5.2018 7.2777 8.2449 5.5915 6.0861 12.217 12.866 17.118 17.336 18.813 17.156 49.388 37.544 71.81 47.922 2.5743 1.1914 5.0631 2.2741 6.915 3.0465 0.52329 0.2182 0.83113 0.3244 1.2331 0.4836 0.49171-0.1815 0.94161-0.3243 1.6683-0.6288 2.1525-0.9016 5.1248-2.2787 8.4624-3.9168 6.6753-3.2761 14.857-7.628 21.616-11.606 25.524-15.022 50.961-35.638 67.24-54.329 3.2585-3.7412 5.6582-6.4389 6.8667-8.0756 0.42349-0.5736 0.48181-0.7121 0.60447-0.9188-0.17531-0.2845-0.37763-0.6427-0.99132-1.3781-1.4895-1.7849-4.1948-4.5434-7.8822-8.39-23.042-24.037-48.342-42.335-80.828-58.318l-16.127-7.9305zm-107.45 77.226c-0.02847 0.0527-0.17104 0.2213-0.19342 0.2659-0.16318 0.3261 0.10557 0.282 0.19342-0.2659z" fill="#fff"/>
    <path d="m342.15 1494-2.6772 1.0604c-6.8649 2.7116-26.562 13.369-35.238 19.192-9.5617 6.4182-20.33 15.283-28.284 22.86-3.9771 3.789-7.2726 7.2875-9.2832 9.8222-0.66638 0.84-0.92485 1.2997-1.269 1.8427 0.43178 0.5882 0.53717 0.7553 1.269 1.6341 1.3899 1.6689 3.2225 3.7401 5.2327 5.9281 4.0203 4.3759 8.7841 9.2508 12.308 12.464 13.527 12.335 35.51 26.994 51.631 34.456 1.8509 0.8566 3.6404 1.635 4.9719 2.1904 0.37625 0.1569 0.59758 0.2332 0.8866 0.3477 0.35354-0.1305 0.67702-0.2332 1.1995-0.4521 1.5476-0.6483 3.6847-1.6384 6.0845-2.8162 4.7996-2.3555 10.682-5.4845 15.542-8.3444 18.352-10.801 36.641-25.624 48.346-39.062 2.3429-2.69 4.0682-4.6296 4.9371-5.8064 0.30449-0.4124 0.34642-0.512 0.43461-0.6606-0.12605-0.2046-0.27152-0.4621-0.71276-0.9909-1.071-1.2833-3.0161-3.2667-5.6673-6.0324-16.567-17.282-34.758-30.439-58.116-41.931l-11.595-5.702zm-77.256 55.525c-0.02047 0.0379-0.12298 0.1591-0.13907 0.1912-0.11733 0.2344 0.07591 0.2027 0.13907-0.1912z"/>
    <path d="m217.67 1663.4c-23.166-5.2791-36.002-21.189-34.286-42.496 0.66776-8.2917 5.7692-23.202 10.933-31.954l2.6171-4.4358 12.661 13.091c19.638 20.305 43.675 38.377 69.375 52.159 5.4718 2.9342 9.9592 5.7187 9.972 6.1878 0.02429 0.8874-5.4393 2.5032-20.608 6.0945-13.016 3.0817-39.925 3.8003-50.664 1.3531h4e-5z"/>
    <path d="m464.92 1505.5c-20.376-19.523-45.148-36.854-71.494-50.019-6.0255-3.011-10.956-5.7085-10.956-5.9945s4.0336-1.7176 8.9636-3.1816c32.746-9.7243 59.093-10.444 77.352-2.1133 20.014 9.1312 26.82 26.614 19.441 49.934-1.9178 6.061-5.135 13.794-7.1493 17.184l-3.6622 6.1636-12.496-11.973z"/>
   </g>
   <path d="m286.71 1584.6c-2.3416-5.2961-8.3135-16.138-13.271-24.094l-9.0134-14.465 5.8567-8.5352c3.2211-4.6942 9.244-15.274 13.384-23.51l7.5277-14.975 4.4319 10.042c2.4376 5.5233 8.1688 15.959 12.736 23.191s8.304 13.789 8.304 14.572-2.7166 5.3719-6.0368 10.198-9.1024 15.171-12.849 22.99l-6.8125 14.215-4.2576-9.629z"/>
   <g transform="translate(-690,-10)">
    <g transform="translate(-24,138)">
     <path d="m309.13 1321.9c-107.48 63.341-169.23 157.98-137.84 211.24s144.09 45.082 251.57-18.259 169.23-157.98 137.84-211.24-144.09-45.082-251.57 18.259zm3.0464 5.1691c95.96-56.555 196.58-63.856 224.61-16.3s-27.103 132.05-123.06 188.6-196.58 63.856-224.61 16.3 27.103-132.05 123.06-188.6z"/>
     <path d="m422.87 1321.9c107.48 63.341 169.23 157.98 137.84 211.24s-144.09 45.082-251.57-18.259-169.23-157.98-137.84-211.24 144.09-45.082 251.57 18.259zm-3.0464 5.1691c-95.96-56.555-196.58-63.856-224.61-16.3s27.103 132.05 123.06 188.6 196.58 63.856 224.61 16.3-27.103-132.05-123.06-188.6z"/>
     <path d="m264.03 1297.5c-28.954 1.1471-46.023 10.728-53.344 23.063-6.5939 11.11-7.5704 27.841 3.5312 51.625l2.9375-2.8126c26.932-25.747 58.192-48.667 91.75-67.531-16.715-3.3932-31.919-4.857-44.875-4.3438z"/>
     <path d="m476.66 1534.1c28.954-1.1471 46.023-10.728 53.344-23.063 6.5939-11.11 7.5704-27.841-3.5312-51.625l-2.9375 2.8126c-26.932 25.747-58.192 48.667-91.75 67.531 16.715 3.3932 31.919 4.857 44.875 4.3438z"/>
    </g>
    <path d="m342.69 1449.4-4.8125 1.9062c-12.34 4.8743-47.748 24.031-63.344 34.5-17.188 11.537-36.545 27.472-50.844 41.094-7.1492 6.811-13.073 13.1-16.688 17.656-1.1979 1.5102-1.6625 2.3364-2.2812 3.3126 0.77618 1.0573 0.96563 1.3578 2.2812 2.9374 2.4985 3 5.7928 6.7232 9.4062 10.656 7.2269 7.8662 15.79 16.629 22.125 22.406 24.315 22.174 63.833 48.525 92.812 61.937 3.3272 1.54 6.544 2.9393 8.9375 3.9376 0.67633 0.282 1.0742 0.4192 1.5938 0.625 0.63552-0.2346 1.217-0.4191 2.1562-0.8126 2.782-1.1654 6.6236-2.9453 10.938-5.0624 8.6277-4.2343 19.202-9.859 27.938-15 32.99-19.415 65.866-46.061 86.906-70.219 4.2115-4.8355 7.313-8.3221 8.875-10.438 0.54735-0.7413 0.62271-0.9204 0.78125-1.1875-0.22657-0.3678-0.48808-0.8308-1.2812-1.7812-1.9252-2.3069-5.4217-5.8722-10.188-10.844-29.781-31.067-62.481-54.717-104.47-75.375l-20.844-10.25zm-138.88 99.812c-0.0368 0.0681-0.22106 0.2859-0.25 0.3437-0.2109 0.4214 0.13646 0.3645 0.25-0.3437z"/>
    <path d="m342.41 1472.1-3.7235 1.4749c-9.5479 3.7713-36.943 18.593-49.01 26.693-13.299 8.9265-28.276 21.255-39.338 31.795-5.5314 5.2698-10.115 10.136-12.911 13.661-0.92682 1.1683-1.2863 1.8076-1.765 2.5629 0.60053 0.818 0.74711 1.0505 1.765 2.2727 1.9331 2.3211 4.482 5.2018 7.2777 8.2449 5.5915 6.0861 12.217 12.866 17.118 17.336 18.813 17.156 49.388 37.544 71.81 47.922 2.5743 1.1914 5.0631 2.2741 6.915 3.0465 0.52329 0.2182 0.83113 0.3244 1.2331 0.4836 0.49171-0.1815 0.94161-0.3243 1.6683-0.6288 2.1525-0.9016 5.1248-2.2787 8.4624-3.9168 6.6753-3.2761 14.857-7.628 21.616-11.606 25.524-15.022 50.961-35.638 67.24-54.329 3.2585-3.7412 5.6582-6.4389 6.8667-8.0756 0.42349-0.5736 0.48181-0.7121 0.60447-0.9188-0.17531-0.2845-0.37763-0.6427-0.99132-1.3781-1.4895-1.7849-4.1948-4.5434-7.8822-8.39-23.042-24.037-48.342-42.335-80.828-58.318l-16.127-7.9305zm-107.45 77.226c-0.02847 0.0527-0.17104 0.2213-0.19342 0.2659-0.16318 0.3261 0.10557 0.282 0.19342-0.2659z" fill="#fff"/>
    <path d="m342.15 1494-2.6772 1.0604c-6.8649 2.7116-26.562 13.369-35.238 19.192-9.5617 6.4182-20.33 15.283-28.284 22.86-3.9771 3.789-7.2726 7.2875-9.2832 9.8222-0.66638 0.84-0.92485 1.2997-1.269 1.8427 0.43178 0.5882 0.53717 0.7553 1.269 1.6341 1.3899 1.6689 3.2225 3.7401 5.2327 5.9281 4.0203 4.3759 8.7841 9.2508 12.308 12.464 13.527 12.335 35.51 26.994 51.631 34.456 1.8509 0.8566 3.6404 1.635 4.9719 2.1904 0.37625 0.1569 0.59758 0.2332 0.8866 0.3477 0.35354-0.1305 0.67702-0.2332 1.1995-0.4521 1.5476-0.6483 3.6847-1.6384 6.0845-2.8162 4.7996-2.3555 10.682-5.4845 15.542-8.3444 18.352-10.801 36.641-25.624 48.346-39.062 2.3429-2.69 4.0682-4.6296 4.9371-5.8064 0.30449-0.4124 0.34642-0.512 0.43461-0.6606-0.12605-0.2046-0.27152-0.4621-0.71276-0.9909-1.071-1.2833-3.0161-3.2667-5.6673-6.0324-16.567-17.282-34.758-30.439-58.116-41.931l-11.595-5.702zm-77.256 55.525c-0.02047 0.0379-0.12298 0.1591-0.13907 0.1912-0.11733 0.2344 0.07591 0.2027 0.13907-0.1912z"/>
    <path d="m217.67 1663.4c-23.166-5.2791-36.002-21.189-34.286-42.496 0.66776-8.2917 5.7692-23.202 10.933-31.954l2.6171-4.4358 12.661 13.091c19.638 20.305 43.675 38.377 69.375 52.159 5.4718 2.9342 9.9592 5.7187 9.972 6.1878 0.02429 0.8874-5.4393 2.5032-20.608 6.0945-13.016 3.0817-39.925 3.8003-50.664 1.3531h4e-5z"/>
    <path d="m464.92 1505.5c-20.376-19.523-45.148-36.854-71.494-50.019-6.0255-3.011-10.956-5.7085-10.956-5.9945s4.0336-1.7176 8.9636-3.1816c32.746-9.7243 59.093-10.444 77.352-2.1133 20.014 9.1312 26.82 26.614 19.441 49.934-1.9178 6.061-5.135 13.794-7.1493 17.184l-3.6622 6.1636-12.496-11.973z"/>
   </g>
   <path d="m-141.29 1588.6c-2.3416-5.2961-8.3135-16.138-13.271-24.094l-9.0134-14.465 5.8567-8.5352c3.2211-4.6942 9.244-15.274 13.384-23.51l7.5277-14.975 4.4319 10.042c2.4376 5.5233 8.1688 15.959 12.736 23.191s8.304 13.789 8.304 14.572-2.7166 5.3719-6.0368 10.198-9.1024 15.171-12.849 22.99l-6.8125 14.215-4.2576-9.629z"/>
   <path d="m-566.22 1671v26h21.375l2.375 7.8438c2.9718 9.9191 16.932 24.413 29.562 30.688 16.235 8.0649 26.495 10.204 53.156 10.375 1.7774 0.0113 3.6014 0.0049 5.5312 0 33.267-0.0848 50.171-3.0425 86.688-15.188l23.656-7.875 21.344 7.25c35.643 12.071 55.476 15.597 88.312 15.75 30.785 0.1437 41.35-1.6734 58.438-10.156 13.728-6.8153 22.693-15.527 28.719-27.844l5.3438-10.844h9.4375c9.2614 0 9.506 0.1454 11.812 7.8438 2.9718 9.9191 16.932 24.413 29.562 30.688 17.318 8.6026 27.809 10.454 58.688 10.375 33.267-0.0848 50.171-3.0425 86.688-15.188l23.656-7.875 21.344 7.25c35.643 12.071 55.476 15.597 88.312 15.75 30.785 0.1437 41.35-1.6734 58.438-10.156 13.728-6.8153 22.693-15.527 28.719-27.844l5.3438-10.844h28.875l2.375 7.8438c2.9718 9.9191 16.932 24.413 29.562 30.688 17.318 8.6026 27.809 10.454 58.688 10.375 33.267-0.0848 50.171-3.0425 86.688-15.188l23.656-7.875 21.344 7.25c35.643 12.071 55.476 15.597 88.312 15.75 30.785 0.1437 41.35-1.6734 58.438-10.156 13.728-6.8153 22.693-15.527 28.719-27.844l5.3438-10.844h7.7188v-26h-7.7188l-5.3438 10.844c-6.0262 12.317-14.991 21.028-28.719 27.844-17.087 8.4828-27.652 10.3-58.438 10.156-32.837-0.1532-52.67-3.6794-88.312-15.75l-21.344-7.25-23.656 7.875c-36.517 12.145-53.42 15.103-86.688 15.188-30.878 0.0786-41.37-1.7724-58.688-10.375-12.63-6.2743-26.591-20.768-29.562-30.688l-2.375-7.8438h-28.875l-5.3438 10.844c-6.0262 12.317-14.991 21.028-28.719 27.844-17.087 8.4828-27.652 10.3-58.438 10.156-32.837-0.1532-52.67-3.6794-88.312-15.75l-21.344-7.25-23.656 7.875c-36.517 12.145-53.42 15.103-86.688 15.188-30.878 0.0786-41.37-1.7724-58.688-10.375-12.63-6.2743-26.591-20.768-29.562-30.688-2.3065-7.6983-2.5511-7.8438-11.812-7.8438h-9.4375l-5.3438 10.844c-6.0262 12.317-14.991 21.028-28.719 27.844-17.087 8.4828-27.652 10.3-58.438 10.156-32.837-0.1532-52.67-3.6794-88.312-15.75l-21.344-7.25-23.656 7.875c-36.517 12.145-53.42 15.103-86.688 15.188-30.878 0.0786-41.37-1.7724-58.688-10.375-12.63-6.2743-26.591-20.768-29.562-30.688l-2.375-7.8438h-21.375z"/>
   <path d="m-461.75 1347c-26.662 0.171-36.921 2.3101-53.156 10.375-12.63 6.2743-26.591 20.768-29.562 30.688l-2.375 7.8437h-21.375v26h21.375l2.375-7.8437c2.9718-9.9191 16.932-24.413 29.562-30.688 17.318-8.6026 27.809-10.454 58.688-10.375 33.267 0.0848 50.171 3.0424 86.688 15.188l23.656 7.875 21.344-7.25c35.643-12.071 55.476-15.597 88.312-15.75 30.785-0.1437 41.35 1.6733 58.438 10.156 13.728 6.8153 22.693 15.527 28.719 27.844l5.3438 10.844h9.4375c9.2614 0 9.506-0.1454 11.812-7.8437 2.9718-9.9191 16.932-24.413 29.562-30.688 17.318-8.6026 27.809-10.454 58.688-10.375 33.267 0.0848 50.171 3.0424 86.688 15.188l23.656 7.875 21.344-7.25c35.643-12.071 55.476-15.597 88.312-15.75 30.785-0.1437 41.35 1.6733 58.438 10.156 13.728 6.8153 22.693 15.527 28.719 27.844l5.3438 10.844h28.875l2.375-7.8437c2.9718-9.9191 16.932-24.413 29.562-30.688 17.318-8.6026 27.809-10.454 58.688-10.375 33.267 0.0848 50.171 3.0424 86.688 15.188l23.656 7.875 21.344-7.25c35.643-12.071 55.476-15.597 88.312-15.75 30.785-0.1437 41.35 1.6733 58.438 10.156 13.728 6.8153 22.693 15.527 28.719 27.844l5.3438 10.844h9.7188v-26h-9.7188l-5.3438-10.844c-6.0262-12.317-14.991-21.028-28.719-27.844-17.087-8.4829-27.652-10.3-58.438-10.156-32.837 0.1532-52.67 3.6793-88.312 15.75l-21.344 7.25-23.656-7.875c-36.517-12.145-53.42-15.103-86.688-15.188-30.878-0.0786-41.37 1.7724-58.688 10.375-12.63 6.2743-26.591 20.768-29.562 30.688l-2.375 7.8437h-28.875l-5.3438-10.844c-6.0262-12.317-14.991-21.028-28.719-27.844-17.087-8.4829-27.652-10.3-58.438-10.156-32.837 0.1532-52.67 3.6793-88.312 15.75l-21.344 7.25-23.656-7.875c-36.517-12.145-53.42-15.103-86.688-15.188-30.878-0.0786-41.37 1.7724-58.688 10.375-12.63 6.2743-26.591 20.768-29.562 30.688-2.3065 7.6983-2.5511 7.8437-11.812 7.8437h-9.4375l-5.3438-10.844c-6.0262-12.317-14.991-21.028-28.719-27.844-17.087-8.4829-27.652-10.3-58.438-10.156-32.837 0.1532-52.67 3.6793-88.312 15.75l-21.344 7.25-23.656-7.875c-36.517-12.145-53.42-15.103-86.688-15.188-1.9299-0.0049-3.7538-0.0112-5.5312 0z"/>
  </g>
  <g transform="translate(164,-10)">
   <g transform="translate(-24,138)">
    <path d="m309.13 1321.9c-107.48 63.341-169.23 157.98-137.84 211.24s144.09 45.082 251.57-18.259 169.23-157.98 137.84-211.24-144.09-45.082-251.57 18.259zm3.0464 5.1691c95.96-56.555 196.58-63.856 224.61-16.3s-27.103 132.05-123.06 188.6-196.58 63.856-224.61 16.3 27.103-132.05 123.06-188.6z"/>
    <path d="m422.87 1321.9c107.48 63.341 169.23 157.98 137.84 211.24s-144.09 45.082-251.57-18.259-169.23-157.98-137.84-211.24 144.09-45.082 251.57 18.259zm-3.0464 5.1691c-95.96-56.555-196.58-63.856-224.61-16.3s27.103 132.05 123.06 188.6 196.58 63.856 224.61 16.3-27.103-132.05-123.06-188.6z"/>
    <path d="m264.03 1297.5c-28.954 1.1471-46.023 10.728-53.344 23.063-6.5939 11.11-7.5704 27.841 3.5312 51.625l2.9375-2.8126c26.932-25.747 58.192-48.667 91.75-67.531-16.715-3.3932-31.919-4.857-44.875-4.3438z"/>
    <path d="m476.66 1534.1c28.954-1.1471 46.023-10.728 53.344-23.063 6.5939-11.11 7.5704-27.841-3.5312-51.625l-2.9375 2.8126c-26.932 25.747-58.192 48.667-91.75 67.531 16.715 3.3932 31.919 4.857 44.875 4.3438z"/>
   </g>
   <path d="m342.69 1449.4-4.8125 1.9062c-12.34 4.8743-47.748 24.031-63.344 34.5-17.188 11.537-36.545 27.472-50.844 41.094-7.1492 6.811-13.073 13.1-16.688 17.656-1.1979 1.5102-1.6625 2.3364-2.2812 3.3126 0.77618 1.0573 0.96563 1.3578 2.2812 2.9374 2.4985 3 5.7928 6.7232 9.4062 10.656 7.2269 7.8662 15.79 16.629 22.125 22.406 24.315 22.174 63.833 48.525 92.812 61.937 3.3272 1.54 6.544 2.9393 8.9375 3.9376 0.67633 0.282 1.0742 0.4192 1.5938 0.625 0.63552-0.2346 1.217-0.4191 2.1562-0.8126 2.782-1.1654 6.6236-2.9453 10.938-5.0624 8.6277-4.2343 19.202-9.859 27.938-15 32.99-19.415 65.866-46.061 86.906-70.219 4.2115-4.8355 7.313-8.3221 8.875-10.438 0.54735-0.7413 0.62271-0.9204 0.78125-1.1875-0.22657-0.3678-0.48808-0.8308-1.2812-1.7812-1.9252-2.3069-5.4217-5.8722-10.188-10.844-29.781-31.067-62.481-54.717-104.47-75.375l-20.844-10.25zm-138.88 99.812c-0.0368 0.0681-0.22106 0.2859-0.25 0.3437-0.2109 0.4214 0.13646 0.3645 0.25-0.3437z"/>
   <path d="m342.41 1472.1-3.7235 1.4749c-9.5479 3.7713-36.943 18.593-49.01 26.693-13.299 8.9265-28.276 21.255-39.338 31.795-5.5314 5.2698-10.115 10.136-12.911 13.661-0.92682 1.1683-1.2863 1.8076-1.765 2.5629 0.60053 0.818 0.74711 1.0505 1.765 2.2727 1.9331 2.3211 4.482 5.2018 7.2777 8.2449 5.5915 6.0861 12.217 12.866 17.118 17.336 18.813 17.156 49.388 37.544 71.81 47.922 2.5743 1.1914 5.0631 2.2741 6.915 3.0465 0.52329 0.2182 0.83113 0.3244 1.2331 0.4836 0.49171-0.1815 0.94161-0.3243 1.6683-0.6288 2.1525-0.9016 5.1248-2.2787 8.4624-3.9168 6.6753-3.2761 14.857-7.628 21.616-11.606 25.524-15.022 50.961-35.638 67.24-54.329 3.2585-3.7412 5.6582-6.4389 6.8667-8.0756 0.42349-0.5736 0.48181-0.7121 0.60447-0.9188-0.17531-0.2845-0.37763-0.6427-0.99132-1.3781-1.4895-1.7849-4.1948-4.5434-7.8822-8.39-23.042-24.037-48.342-42.335-80.828-58.318l-16.127-7.9305zm-107.45 77.226c-0.02847 0.0527-0.17104 0.2213-0.19342 0.2659-0.16318 0.3261 0.10557 0.282 0.19342-0.2659z" fill="#fff"/>
   <path d="m342.15 1494-2.6772 1.0604c-6.8649 2.7116-26.562 13.369-35.238 19.192-9.5617 6.4182-20.33 15.283-28.284 22.86-3.9771 3.789-7.2726 7.2875-9.2832 9.8222-0.66638 0.84-0.92485 1.2997-1.269 1.8427 0.43178 0.5882 0.53717 0.7553 1.269 1.6341 1.3899 1.6689 3.2225 3.7401 5.2327 5.9281 4.0203 4.3759 8.7841 9.2508 12.308 12.464 13.527 12.335 35.51 26.994 51.631 34.456 1.8509 0.8566 3.6404 1.635 4.9719 2.1904 0.37625 0.1569 0.59758 0.2332 0.8866 0.3477 0.35354-0.1305 0.67702-0.2332 1.1995-0.4521 1.5476-0.6483 3.6847-1.6384 6.0845-2.8162 4.7996-2.3555 10.682-5.4845 15.542-8.3444 18.352-10.801 36.641-25.624 48.346-39.062 2.3429-2.69 4.0682-4.6296 4.9371-5.8064 0.30449-0.4124 0.34642-0.512 0.43461-0.6606-0.12605-0.2046-0.27152-0.4621-0.71276-0.9909-1.071-1.2833-3.0161-3.2667-5.6673-6.0324-16.567-17.282-34.758-30.439-58.116-41.931l-11.595-5.702zm-77.256 55.525c-0.02047 0.0379-0.12298 0.1591-0.13907 0.1912-0.11733 0.2344 0.07591 0.2027 0.13907-0.1912z"/>
   <path d="m217.67 1663.4c-23.166-5.2791-36.002-21.189-34.286-42.496 0.66776-8.2917 5.7692-23.202 10.933-31.954l2.6171-4.4358 12.661 13.091c19.638 20.305 43.675 38.377 69.375 52.159 5.4718 2.9342 9.9592 5.7187 9.972 6.1878 0.02429 0.8874-5.4393 2.5032-20.608 6.0945-13.016 3.0817-39.925 3.8003-50.664 1.3531h4e-5z"/>
   <path d="m464.92 1505.5c-20.376-19.523-45.148-36.854-71.494-50.019-6.0255-3.011-10.956-5.7085-10.956-5.9945s4.0336-1.7176 8.9636-3.1816c32.746-9.7243 59.093-10.444 77.352-2.1133 20.014 9.1312 26.82 26.614 19.441 49.934-1.9178 6.061-5.135 13.794-7.1493 17.184l-3.6622 6.1636-12.496-11.973z"/>
  </g>
  <g transform="translate(-268,-10)">
   <g transform="translate(-24,138)">
    <path d="m309.13 1321.9c-107.48 63.341-169.23 157.98-137.84 211.24s144.09 45.082 251.57-18.259 169.23-157.98 137.84-211.24-144.09-45.082-251.57 18.259zm3.0464 5.1691c95.96-56.555 196.58-63.856 224.61-16.3s-27.103 132.05-123.06 188.6-196.58 63.856-224.61 16.3 27.103-132.05 123.06-188.6z"/>
    <path d="m422.87 1321.9c107.48 63.341 169.23 157.98 137.84 211.24s-144.09 45.082-251.57-18.259-169.23-157.98-137.84-211.24 144.09-45.082 251.57 18.259zm-3.0464 5.1691c-95.96-56.555-196.58-63.856-224.61-16.3s27.103 132.05 123.06 188.6 196.58 63.856 224.61 16.3-27.103-132.05-123.06-188.6z"/>
    <path d="m264.03 1297.5c-28.954 1.1471-46.023 10.728-53.344 23.063-6.5939 11.11-7.5704 27.841 3.5312 51.625l2.9375-2.8126c26.932-25.747 58.192-48.667 91.75-67.531-16.715-3.3932-31.919-4.857-44.875-4.3438z"/>
    <path d="m476.66 1534.1c28.954-1.1471 46.023-10.728 53.344-23.063 6.5939-11.11 7.5704-27.841-3.5312-51.625l-2.9375 2.8126c-26.932 25.747-58.192 48.667-91.75 67.531 16.715 3.3932 31.919 4.857 44.875 4.3438z"/>
   </g>
   <path d="m342.69 1449.4-4.8125 1.9062c-12.34 4.8743-47.748 24.031-63.344 34.5-17.188 11.537-36.545 27.472-50.844 41.094-7.1492 6.811-13.073 13.1-16.688 17.656-1.1979 1.5102-1.6625 2.3364-2.2812 3.3126 0.77618 1.0573 0.96563 1.3578 2.2812 2.9374 2.4985 3 5.7928 6.7232 9.4062 10.656 7.2269 7.8662 15.79 16.629 22.125 22.406 24.315 22.174 63.833 48.525 92.812 61.937 3.3272 1.54 6.544 2.9393 8.9375 3.9376 0.67633 0.282 1.0742 0.4192 1.5938 0.625 0.63552-0.2346 1.217-0.4191 2.1562-0.8126 2.782-1.1654 6.6236-2.9453 10.938-5.0624 8.6277-4.2343 19.202-9.859 27.938-15 32.99-19.415 65.866-46.061 86.906-70.219 4.2115-4.8355 7.313-8.3221 8.875-10.438 0.54735-0.7413 0.62271-0.9204 0.78125-1.1875-0.22657-0.3678-0.48808-0.8308-1.2812-1.7812-1.9252-2.3069-5.4217-5.8722-10.188-10.844-29.781-31.067-62.481-54.717-104.47-75.375l-20.844-10.25zm-138.88 99.812c-0.0368 0.0681-0.22106 0.2859-0.25 0.3437-0.2109 0.4214 0.13646 0.3645 0.25-0.3437z"/>
   <path d="m342.41 1472.1-3.7235 1.4749c-9.5479 3.7713-36.943 18.593-49.01 26.693-13.299 8.9265-28.276 21.255-39.338 31.795-5.5314 5.2698-10.115 10.136-12.911 13.661-0.92682 1.1683-1.2863 1.8076-1.765 2.5629 0.60053 0.818 0.74711 1.0505 1.765 2.2727 1.9331 2.3211 4.482 5.2018 7.2777 8.2449 5.5915 6.0861 12.217 12.866 17.118 17.336 18.813 17.156 49.388 37.544 71.81 47.922 2.5743 1.1914 5.0631 2.2741 6.915 3.0465 0.52329 0.2182 0.83113 0.3244 1.2331 0.4836 0.49171-0.1815 0.94161-0.3243 1.6683-0.6288 2.1525-0.9016 5.1248-2.2787 8.4624-3.9168 6.6753-3.2761 14.857-7.628 21.616-11.606 25.524-15.022 50.961-35.638 67.24-54.329 3.2585-3.7412 5.6582-6.4389 6.8667-8.0756 0.42349-0.5736 0.48181-0.7121 0.60447-0.9188-0.17531-0.2845-0.37763-0.6427-0.99132-1.3781-1.4895-1.7849-4.1948-4.5434-7.8822-8.39-23.042-24.037-48.342-42.335-80.828-58.318l-16.127-7.9305zm-107.45 77.226c-0.02847 0.0527-0.17104 0.2213-0.19342 0.2659-0.16318 0.3261 0.10557 0.282 0.19342-0.2659z" fill="#fff"/>
   <path d="m342.15 1494-2.6772 1.0604c-6.8649 2.7116-26.562 13.369-35.238 19.192-9.5617 6.4182-20.33 15.283-28.284 22.86-3.9771 3.789-7.2726 7.2875-9.2832 9.8222-0.66638 0.84-0.92485 1.2997-1.269 1.8427 0.43178 0.5882 0.53717 0.7553 1.269 1.6341 1.3899 1.6689 3.2225 3.7401 5.2327 5.9281 4.0203 4.3759 8.7841 9.2508 12.308 12.464 13.527 12.335 35.51 26.994 51.631 34.456 1.8509 0.8566 3.6404 1.635 4.9719 2.1904 0.37625 0.1569 0.59758 0.2332 0.8866 0.3477 0.35354-0.1305 0.67702-0.2332 1.1995-0.4521 1.5476-0.6483 3.6847-1.6384 6.0845-2.8162 4.7996-2.3555 10.682-5.4845 15.542-8.3444 18.352-10.801 36.641-25.624 48.346-39.062 2.3429-2.69 4.0682-4.6296 4.9371-5.8064 0.30449-0.4124 0.34642-0.512 0.43461-0.6606-0.12605-0.2046-0.27152-0.4621-0.71276-0.9909-1.071-1.2833-3.0161-3.2667-5.6673-6.0324-16.567-17.282-34.758-30.439-58.116-41.931l-11.595-5.702zm-77.256 55.525c-0.02047 0.0379-0.12298 0.1591-0.13907 0.1912-0.11733 0.2344 0.07591 0.2027 0.13907-0.1912z"/>
   <path d="m217.67 1663.4c-23.166-5.2791-36.002-21.189-34.286-42.496 0.66776-8.2917 5.7692-23.202 10.933-31.954l2.6171-4.4358 12.661 13.091c19.638 20.305 43.675 38.377 69.375 52.159 5.4718 2.9342 9.9592 5.7187 9.972 6.1878 0.02429 0.8874-5.4393 2.5032-20.608 6.0945-13.016 3.0817-39.925 3.8003-50.664 1.3531h4e-5z"/>
   <path d="m464.92 1505.5c-20.376-19.523-45.148-36.854-71.494-50.019-6.0255-3.011-10.956-5.7085-10.956-5.9945s4.0336-1.7176 8.9636-3.1816c32.746-9.7243 59.093-10.444 77.352-2.1133 20.014 9.1312 26.82 26.614 19.441 49.934-1.9178 6.061-5.135 13.794-7.1493 17.184l-3.6622 6.1636-12.496-11.973z"/>
  </g>
  <path d="m286.71 1584.6c-2.3416-5.2961-8.3135-16.138-13.271-24.094l-9.0134-14.465 5.8567-8.5352c3.2211-4.6942 9.244-15.274 13.384-23.51l7.5277-14.975 4.4319 10.042c2.4376 5.5233 8.1688 15.959 12.736 23.191s8.304 13.789 8.304 14.572-2.7166 5.3719-6.0368 10.198-9.1024 15.171-12.849 22.99l-6.8125 14.215-4.2576-9.629z"/>
  <g transform="translate(-690,-10)">
   <g transform="translate(-24,138)">
    <path d="m309.13 1321.9c-107.48 63.341-169.23 157.98-137.84 211.24s144.09 45.082 251.57-18.259 169.23-157.98 137.84-211.24-144.09-45.082-251.57 18.259zm3.0464 5.1691c95.96-56.555 196.58-63.856 224.61-16.3s-27.103 132.05-123.06 188.6-196.58 63.856-224.61 16.3 27.103-132.05 123.06-188.6z"/>
    <path d="m422.87 1321.9c107.48 63.341 169.23 157.98 137.84 211.24s-144.09 45.082-251.57-18.259-169.23-157.98-137.84-211.24 144.09-45.082 251.57 18.259zm-3.0464 5.1691c-95.96-56.555-196.58-63.856-224.61-16.3s27.103 132.05 123.06 188.6 196.58 63.856 224.61 16.3-27.103-132.05-123.06-188.6z"/>
    <path d="m264.03 1297.5c-28.954 1.1471-46.023 10.728-53.344 23.063-6.5939 11.11-7.5704 27.841 3.5312 51.625l2.9375-2.8126c26.932-25.747 58.192-48.667 91.75-67.531-16.715-3.3932-31.919-4.857-44.875-4.3438z"/>
    <path d="m476.66 1534.1c28.954-1.1471 46.023-10.728 53.344-23.063 6.5939-11.11 7.5704-27.841-3.5312-51.625l-2.9375 2.8126c-26.932 25.747-58.192 48.667-91.75 67.531 16.715 3.3932 31.919 4.857 44.875 4.3438z"/>
   </g>
   <path d="m342.69 1449.4-4.8125 1.9062c-12.34 4.8743-47.748 24.031-63.344 34.5-17.188 11.537-36.545 27.472-50.844 41.094-7.1492 6.811-13.073 13.1-16.688 17.656-1.1979 1.5102-1.6625 2.3364-2.2812 3.3126 0.77618 1.0573 0.96563 1.3578 2.2812 2.9374 2.4985 3 5.7928 6.7232 9.4062 10.656 7.2269 7.8662 15.79 16.629 22.125 22.406 24.315 22.174 63.833 48.525 92.812 61.937 3.3272 1.54 6.544 2.9393 8.9375 3.9376 0.67633 0.282 1.0742 0.4192 1.5938 0.625 0.63552-0.2346 1.217-0.4191 2.1562-0.8126 2.782-1.1654 6.6236-2.9453 10.938-5.0624 8.6277-4.2343 19.202-9.859 27.938-15 32.99-19.415 65.866-46.061 86.906-70.219 4.2115-4.8355 7.313-8.3221 8.875-10.438 0.54735-0.7413 0.62271-0.9204 0.78125-1.1875-0.22657-0.3678-0.48808-0.8308-1.2812-1.7812-1.9252-2.3069-5.4217-5.8722-10.188-10.844-29.781-31.067-62.481-54.717-104.47-75.375l-20.844-10.25zm-138.88 99.812c-0.0368 0.0681-0.22106 0.2859-0.25 0.3437-0.2109 0.4214 0.13646 0.3645 0.25-0.3437z"/>
   <path d="m342.41 1472.1-3.7235 1.4749c-9.5479 3.7713-36.943 18.593-49.01 26.693-13.299 8.9265-28.276 21.255-39.338 31.795-5.5314 5.2698-10.115 10.136-12.911 13.661-0.92682 1.1683-1.2863 1.8076-1.765 2.5629 0.60053 0.818 0.74711 1.0505 1.765 2.2727 1.9331 2.3211 4.482 5.2018 7.2777 8.2449 5.5915 6.0861 12.217 12.866 17.118 17.336 18.813 17.156 49.388 37.544 71.81 47.922 2.5743 1.1914 5.0631 2.2741 6.915 3.0465 0.52329 0.2182 0.83113 0.3244 1.2331 0.4836 0.49171-0.1815 0.94161-0.3243 1.6683-0.6288 2.1525-0.9016 5.1248-2.2787 8.4624-3.9168 6.6753-3.2761 14.857-7.628 21.616-11.606 25.524-15.022 50.961-35.638 67.24-54.329 3.2585-3.7412 5.6582-6.4389 6.8667-8.0756 0.42349-0.5736 0.48181-0.7121 0.60447-0.9188-0.17531-0.2845-0.37763-0.6427-0.99132-1.3781-1.4895-1.7849-4.1948-4.5434-7.8822-8.39-23.042-24.037-48.342-42.335-80.828-58.318l-16.127-7.9305zm-107.45 77.226c-0.02847 0.0527-0.17104 0.2213-0.19342 0.2659-0.16318 0.3261 0.10557 0.282 0.19342-0.2659z" fill="#fff"/>
   <path d="m342.15 1494-2.6772 1.0604c-6.8649 2.7116-26.562 13.369-35.238 19.192-9.5617 6.4182-20.33 15.283-28.284 22.86-3.9771 3.789-7.2726 7.2875-9.2832 9.8222-0.66638 0.84-0.92485 1.2997-1.269 1.8427 0.43178 0.5882 0.53717 0.7553 1.269 1.6341 1.3899 1.6689 3.2225 3.7401 5.2327 5.9281 4.0203 4.3759 8.7841 9.2508 12.308 12.464 13.527 12.335 35.51 26.994 51.631 34.456 1.8509 0.8566 3.6404 1.635 4.9719 2.1904 0.37625 0.1569 0.59758 0.2332 0.8866 0.3477 0.35354-0.1305 0.67702-0.2332 1.1995-0.4521 1.5476-0.6483 3.6847-1.6384 6.0845-2.8162 4.7996-2.3555 10.682-5.4845 15.542-8.3444 18.352-10.801 36.641-25.624 48.346-39.062 2.3429-2.69 4.0682-4.6296 4.9371-5.8064 0.30449-0.4124 0.34642-0.512 0.43461-0.6606-0.12605-0.2046-0.27152-0.4621-0.71276-0.9909-1.071-1.2833-3.0161-3.2667-5.6673-6.0324-16.567-17.282-34.758-30.439-58.116-41.931l-11.595-5.702zm-77.256 55.525c-0.02047 0.0379-0.12298 0.1591-0.13907 0.1912-0.11733 0.2344 0.07591 0.2027 0.13907-0.1912z"/>
   <path d="m217.67 1663.4c-23.166-5.2791-36.002-21.189-34.286-42.496 0.66776-8.2917 5.7692-23.202 10.933-31.954l2.6171-4.4358 12.661 13.091c19.638 20.305 43.675 38.377 69.375 52.159 5.4718 2.9342 9.9592 5.7187 9.972 6.1878 0.02429 0.8874-5.4393 2.5032-20.608 6.0945-13.016 3.0817-39.925 3.8003-50.664 1.3531h4e-5z"/>
   <path d="m464.92 1505.5c-20.376-19.523-45.148-36.854-71.494-50.019-6.0255-3.011-10.956-5.7085-10.956-5.9945s4.0336-1.7176 8.9636-3.1816c32.746-9.7243 59.093-10.444 77.352-2.1133 20.014 9.1312 26.82 26.614 19.441 49.934-1.9178 6.061-5.135 13.794-7.1493 17.184l-3.6622 6.1636-12.496-11.973z"/>
  </g>
  <path d="m-141.29 1588.6c-2.3416-5.2961-8.3135-16.138-13.271-24.094l-9.0134-14.465 5.8567-8.5352c3.2211-4.6942 9.244-15.274 13.384-23.51l7.5277-14.975 4.4319 10.042c2.4376 5.5233 8.1688 15.959 12.736 23.191s8.304 13.789 8.304 14.572-2.7166 5.3719-6.0368 10.198-9.1024 15.171-12.849 22.99l-6.8125 14.215-4.2576-9.629z"/>
  <path d="m-566.22 1671v26h21.375l2.375 7.8438c2.9718 9.9191 16.932 24.413 29.562 30.688 16.235 8.0649 26.495 10.204 53.156 10.375 1.7774 0.0113 3.6014 0.0049 5.5312 0 33.267-0.0848 50.171-3.0425 86.688-15.188l23.656-7.875 21.344 7.25c35.643 12.071 55.476 15.597 88.312 15.75 30.785 0.1437 41.35-1.6734 58.438-10.156 13.728-6.8153 22.693-15.527 28.719-27.844l5.3438-10.844h9.4375c9.2614 0 9.506 0.1454 11.812 7.8438 2.9718 9.9191 16.932 24.413 29.562 30.688 17.318 8.6026 27.809 10.454 58.688 10.375 33.267-0.0848 50.171-3.0425 86.688-15.188l23.656-7.875 21.344 7.25c35.643 12.071 55.476 15.597 88.312 15.75 30.785 0.1437 41.35-1.6734 58.438-10.156 13.728-6.8153 22.693-15.527 28.719-27.844l5.3438-10.844h28.875l2.375 7.8438c2.9718 9.9191 16.932 24.413 29.562 30.688 17.318 8.6026 27.809 10.454 58.688 10.375 33.267-0.0848 50.171-3.0425 86.688-15.188l23.656-7.875 21.344 7.25c35.643 12.071 55.476 15.597 88.312 15.75 30.785 0.1437 41.35-1.6734 58.438-10.156 13.728-6.8153 22.693-15.527 28.719-27.844l5.3438-10.844h7.7188v-26h-7.7188l-5.3438 10.844c-6.0262 12.317-14.991 21.028-28.719 27.844-17.087 8.4828-27.652 10.3-58.438 10.156-32.837-0.1532-52.67-3.6794-88.312-15.75l-21.344-7.25-23.656 7.875c-36.517 12.145-53.42 15.103-86.688 15.188-30.878 0.0786-41.37-1.7724-58.688-10.375-12.63-6.2743-26.591-20.768-29.562-30.688l-2.375-7.8438h-28.875l-5.3438 10.844c-6.0262 12.317-14.991 21.028-28.719 27.844-17.087 8.4828-27.652 10.3-58.438 10.156-32.837-0.1532-52.67-3.6794-88.312-15.75l-21.344-7.25-23.656 7.875c-36.517 12.145-53.42 15.103-86.688 15.188-30.878 0.0786-41.37-1.7724-58.688-10.375-12.63-6.2743-26.591-20.768-29.562-30.688-2.3065-7.6983-2.5511-7.8438-11.812-7.8438h-9.4375l-5.3438 10.844c-6.0262 12.317-14.991 21.028-28.719 27.844-17.087 8.4828-27.652 10.3-58.438 10.156-32.837-0.1532-52.67-3.6794-88.312-15.75l-21.344-7.25-23.656 7.875c-36.517 12.145-53.42 15.103-86.688 15.188-30.878 0.0786-41.37-1.7724-58.688-10.375-12.63-6.2743-26.591-20.768-29.562-30.688l-2.375-7.8438h-21.375z"/>
  <path d="m-461.75 1347c-26.662 0.171-36.921 2.3101-53.156 10.375-12.63 6.2743-26.591 20.768-29.562 30.688l-2.375 7.8437h-21.375v26h21.375l2.375-7.8437c2.9718-9.9191 16.932-24.413 29.562-30.688 17.318-8.6026 27.809-10.454 58.688-10.375 33.267 0.0848 50.171 3.0424 86.688 15.188l23.656 7.875 21.344-7.25c35.643-12.071 55.476-15.597 88.312-15.75 30.785-0.1437 41.35 1.6733 58.438 10.156 13.728 6.8153 22.693 15.527 28.719 27.844l5.3438 10.844h9.4375c9.2614 0 9.506-0.1454 11.812-7.8437 2.9718-9.9191 16.932-24.413 29.562-30.688 17.318-8.6026 27.809-10.454 58.688-10.375 33.267 0.0848 50.171 3.0424 86.688 15.188l23.656 7.875 21.344-7.25c35.643-12.071 55.476-15.597 88.312-15.75 30.785-0.1437 41.35 1.6733 58.438 10.156 13.728 6.8153 22.693 15.527 28.719 27.844l5.3438 10.844h28.875l2.375-7.8437c2.9718-9.9191 16.932-24.413 29.562-30.688 17.318-8.6026 27.809-10.454 58.688-10.375 33.267 0.0848 50.171 3.0424 86.688 15.188l23.656 7.875 21.344-7.25c35.643-12.071 55.476-15.597 88.312-15.75 30.785-0.1437 41.35 1.6733 58.438 10.156 13.728 6.8153 22.693 15.527 28.719 27.844l5.3438 10.844h9.7188v-26h-9.7188l-5.3438-10.844c-6.0262-12.317-14.991-21.028-28.719-27.844-17.087-8.4829-27.652-10.3-58.438-10.156-32.837 0.1532-52.67 3.6793-88.312 15.75l-21.344 7.25-23.656-7.875c-36.517-12.145-53.42-15.103-86.688-15.188-30.878-0.0786-41.37 1.7724-58.688 10.375-12.63 6.2743-26.591 20.768-29.562 30.688l-2.375 7.8437h-28.875l-5.3438-10.844c-6.0262-12.317-14.991-21.028-28.719-27.844-17.087-8.4829-27.652-10.3-58.438-10.156-32.837 0.1532-52.67 3.6793-88.312 15.75l-21.344 7.25-23.656-7.875c-36.517-12.145-53.42-15.103-86.688-15.188-30.878-0.0786-41.37 1.7724-58.688 10.375-12.63 6.2743-26.591 20.768-29.562 30.688-2.3065 7.6983-2.5511 7.8437-11.812 7.8437h-9.4375l-5.3438-10.844c-6.0262-12.317-14.991-21.028-28.719-27.844-17.087-8.4829-27.652-10.3-58.438-10.156-32.837 0.1532-52.67 3.6793-88.312 15.75l-21.344 7.25-23.656-7.875c-36.517-12.145-53.42-15.103-86.688-15.188-1.9299-0.0049-3.7538-0.0112-5.5312 0z"/>
  <path d="m716.71 1580.6c-2.3416-5.2961-8.3135-16.138-13.271-24.094l-9.0134-14.465 5.8567-8.5352c3.2211-4.6942 9.244-15.274 13.384-23.51l7.5277-14.975 4.4319 10.042c2.4376 5.5233 8.1688 15.959 12.736 23.191s8.304 13.789 8.304 14.572-2.7166 5.3719-6.0368 10.198-9.1024 15.171-12.849 22.99l-6.8125 14.215-4.2576-9.629z"/>
 </g>
</svg>
