<?xml version="1.0" encoding="utf-8"?>
<svg version="1.1" id="Layer_1" xmlns="http://www.w3.org/2000/svg" xmlns:xlink="http://www.w3.org/1999/xlink" x="0px" y="0px"
	 viewBox="0 0 4000 4000" enable-background="new 0 0 4000 4000" xml:space="preserve">
<g>
	<path d="M3784.583,3784.583c-1.502-47.148,5.374-96.414,19.434-125.497c10.309-21.29,13.11-39.331,6.051-39.331
		c-7.732,0-31.487,64.767-34.961,95.358c-1.905,17.032-4.37,35.521-5.378,41.236c-0.689,3.781-1.203,7.729-1.551,11.829
		c-4.1,0.349-8.048,0.862-11.829,1.551c-5.715,1.009-24.204,3.474-41.236,5.378c-30.591,3.474-95.358,27.229-95.358,34.961
		c0,7.059,18.041,4.258,39.331-6.051C3688.169,3789.958,3737.435,3783.081,3784.583,3784.583z"/>
	<path d="M215.417,3784.583c47.148-1.502,96.414,5.374,125.497,19.434c21.29,10.309,39.331,13.11,39.331,6.051
		c0-7.732-64.767-31.487-95.358-34.961c-17.032-1.905-35.521-4.37-41.236-5.378c-3.781-0.689-7.728-1.203-11.829-1.551
		c-0.349-4.1-0.862-8.048-1.551-11.829c-1.008-5.715-3.474-24.204-5.379-41.236c-3.474-30.591-27.229-95.358-34.961-95.358
		c-7.059,0-4.258,18.041,6.051,39.331C210.043,3688.169,216.919,3737.435,215.417,3784.583z"/>
	<path d="M215.417,215.417c1.502,47.148-5.374,96.414-19.434,125.497c-10.309,21.29-13.11,39.331-6.051,39.331
		c7.732,0,31.487-64.767,34.961-95.358c1.905-17.032,4.37-35.521,5.379-41.236c0.689-3.781,1.203-7.728,1.551-11.829
		c4.1-0.349,8.048-0.862,11.829-1.551c5.715-1.008,24.204-3.474,41.236-5.379c30.591-3.474,95.358-27.229,95.358-34.961
		c0-7.059-18.041-4.258-39.331,6.051C311.831,210.043,262.565,216.919,215.417,215.417z"/>
	<path d="M3784.583,215.417c-47.148,1.502-96.414-5.374-125.497-19.434c-21.29-10.309-39.331-13.11-39.331-6.051
		c0,7.732,64.767,31.487,95.358,34.961c17.032,1.905,35.521,4.37,41.236,5.379c3.781,0.689,7.729,1.203,11.829,1.551
		c0.349,4.1,0.862,8.048,1.551,11.829c1.009,5.715,3.474,24.204,5.378,41.236c3.474,30.591,27.229,95.358,34.961,95.358
		c7.059,0,4.258-18.041-6.051-39.331C3789.958,311.831,3783.081,262.565,3784.583,215.417z"/>
	<path d="M3838.342,3838.342c22.857-84.036,20.057-129.055-3.061-221.163c-15.239-60.621-22.411-92.22-23.867-105.667
		c-5.267-47.847-5.715-80.118-1.345-96.702c5.715-22.187,30.031-83.48,36.417-92.108c23.307-31.487,50.424-141.412,50.312-204.274
		c-0.112-50.313-1.121-54.906-45.718-211.894c-49.864-175.589-49.08-282.824,2.689-359.245
		c26.781-39.443,29.246-41.124,25.324-16.808c-7.283,44.71,20.506,39.667,46.839-8.628c11.766-21.402,14.455-159.116,3.474-170.098
		c-6.611-6.611-15.575,15.912-9.973,25.1c7.844,12.662-36.306,117.881-58.94,140.628c-27.005,27.005-56.251,106.227-56.251,152.169
		c0,21.962-8.068,18.825-19.049-7.396c-24.316-58.156-68.801-83.928-146.903-85.161c-27.229-0.336-51.993,1.793-58.156,4.93
		c-7.508,4.37,1.793,5.603,41.236,5.379c59.276-0.336,93.677,9.188,118.889,32.832c21.066,19.833,53.001,74.068,53.001,90.091
		c0,19.273,10.197,10.197,10.533,35.073c0.336,27.565,31.487,158.332,61.63,258.62c20.17,67.344,21.402,76.084,17.817,131.327
		c-3.362,53.001-39.219,168.641-71.378,230.943c-12.438,24.092-12.998,22.187-12.774-46.726
		c0.112-62.302-5.154-91.436-16.472-91.436c-3.698,0-4.258,3.137-1.457,8.964c5.379,11.318,6.163,129.198,7.396,207.412
		c1.905,116.76,83.816,253.13,35.073,376.053c-0.294,0.734-0.585,1.466-0.874,2.197c-0.731,0.289-1.463,0.581-2.197,0.874
		c-122.923,48.743-259.293-33.168-376.053-35.073c-78.214-1.233-196.094-2.017-207.412-7.396c-5.827-2.802-8.964-2.241-8.964,1.457
		c0,11.318,29.134,16.584,91.436,16.472c68.913-0.224,70.818,0.336,46.726,12.774c-62.302,32.159-177.942,68.017-230.943,71.378
		c-55.243,3.586-63.983,2.353-131.327-17.817c-100.288-30.142-231.055-61.293-258.62-61.63c-24.876-0.336-15.8-10.533-35.073-10.533
		c-16.024,0-70.258-31.935-90.091-53.001c-23.643-25.212-33.168-59.613-32.832-118.889c0.224-39.443-1.008-48.743-5.379-41.236
		c-3.137,6.163-5.266,30.927-4.93,58.156c1.233,78.102,27.005,122.587,85.161,146.903c26.22,10.981,29.358,19.049,7.396,19.049
		c-45.942,0-125.164,29.246-152.169,56.251c-22.747,22.635-127.966,66.784-140.628,58.94c-9.188-5.603-31.711,3.362-25.1,9.973
		c10.981,10.981,148.696,8.292,170.098-3.474c48.295-26.333,53.338-54.122,8.628-46.839c-24.316,3.922-22.635,1.457,16.808-25.324
		c76.421-51.769,183.656-52.553,359.245-2.689c156.988,44.597,161.582,45.606,211.894,45.718
		c62.862,0.112,172.787-27.005,204.274-50.312c8.628-6.387,69.922-30.703,92.108-36.417c16.584-4.37,48.855-3.922,96.702,1.345
		c13.447,1.457,45.046,8.628,105.667,23.867C3709.287,3858.398,3754.306,3861.199,3838.342,3838.342z"/>
	<path d="M161.658,3838.342c84.036,22.857,129.055,20.057,221.163-3.061c60.621-15.239,92.22-22.411,105.667-23.867
		c47.847-5.267,80.118-5.715,96.703-1.345c22.187,5.715,83.48,30.031,92.108,36.417c31.487,23.307,141.412,50.424,204.274,50.312
		c50.312-0.112,54.906-1.121,211.894-45.718c175.589-49.864,282.824-49.08,359.245,2.689c39.443,26.781,41.124,29.246,16.808,25.324
		c-44.71-7.283-39.667,20.506,8.628,46.839c21.402,11.766,159.117,14.455,170.098,3.474c6.611-6.611-15.912-15.575-25.1-9.973
		c-12.662,7.844-117.881-36.306-140.628-58.94c-27.005-27.005-106.227-56.251-152.169-56.251c-21.962,0-18.825-8.068,7.396-19.049
		c58.156-24.316,83.928-68.801,85.161-146.903c0.336-27.229-1.793-51.993-4.93-58.156c-4.37-7.508-5.603,1.793-5.379,41.236
		c0.336,59.276-9.188,93.677-32.832,118.889c-19.833,21.066-74.068,53.001-90.091,53.001c-19.273,0-10.197,10.197-35.073,10.533
		c-27.565,0.336-158.332,31.487-258.62,61.63c-67.344,20.17-76.085,21.402-131.327,17.817
		c-53.002-3.362-168.641-39.219-230.943-71.378c-24.092-12.438-22.187-12.998,46.726-12.774
		c62.302,0.112,91.436-5.154,91.436-16.472c0-3.698-3.138-4.258-8.964-1.457c-11.318,5.379-129.198,6.163-207.412,7.396
		c-116.76,1.905-253.13,83.816-376.053,35.073c-0.734-0.294-1.466-0.585-2.197-0.874c-0.289-0.731-0.581-1.463-0.874-2.197
		c-48.743-122.923,33.168-259.293,35.073-376.053c1.233-78.214,2.017-196.094,7.396-207.412c2.801-5.827,2.241-8.964-1.457-8.964
		c-11.317,0-16.584,29.134-16.472,91.436c0.224,68.913-0.336,70.818-12.774,46.726c-32.159-62.302-68.017-177.942-71.378-230.943
		c-3.586-55.243-2.353-63.983,17.817-131.327c30.143-100.288,61.293-231.055,61.63-258.62c0.336-24.876,10.533-15.8,10.533-35.073
		c0-16.024,31.935-70.258,53.001-90.091c25.212-23.643,59.613-33.168,118.889-32.832c39.443,0.224,48.743-1.008,41.236-5.379
		c-6.163-3.137-30.927-5.266-58.156-4.93c-78.102,1.233-122.587,27.005-146.903,85.161c-10.981,26.22-19.049,29.358-19.049,7.396
		c0-45.942-29.246-125.164-56.251-152.169c-22.635-22.747-66.784-127.966-58.94-140.628c5.603-9.188-3.362-31.711-9.973-25.1
		c-10.981,10.981-8.292,148.696,3.474,170.098c26.333,48.295,54.122,53.338,46.839,8.628c-3.922-24.316-1.457-22.635,25.324,16.808
		c51.769,76.421,52.553,183.656,2.689,359.245c-44.597,156.988-45.606,161.582-45.718,211.894
		c-0.112,62.862,27.005,172.787,50.312,204.274c6.387,8.628,30.703,69.922,36.418,92.108c4.37,16.584,3.922,48.855-1.345,96.702
		c-1.457,13.447-8.628,45.046-23.867,105.667C141.602,3709.287,138.801,3754.306,161.658,3838.342z"/>
	<path d="M161.658,161.658c-22.857,84.036-20.057,129.055,3.061,221.163c15.239,60.621,22.411,92.22,23.867,105.667
		c5.267,47.847,5.715,80.118,1.345,96.703c-5.715,22.187-30.03,83.48-36.418,92.108c-23.307,31.487-50.424,141.412-50.312,204.274
		c0.112,50.312,1.121,54.906,45.718,211.894c49.864,175.589,49.08,282.824-2.689,359.245
		c-26.781,39.443-29.246,41.124-25.324,16.808c7.284-44.71-20.506-39.667-46.839,8.628c-11.766,21.402-14.455,159.117-3.474,170.098
		c6.611,6.611,15.575-15.912,9.973-25.1c-7.844-12.662,36.305-117.881,58.94-140.628c27.005-27.005,56.251-106.227,56.251-152.169
		c0-21.962,8.068-18.825,19.049,7.396c24.316,58.156,68.801,83.928,146.903,85.161c27.229,0.336,51.993-1.793,58.156-4.93
		c7.508-4.37-1.793-5.603-41.236-5.379c-59.277,0.336-93.677-9.188-118.889-32.832c-21.066-19.833-53.001-74.068-53.001-90.091
		c0-19.273-10.197-10.197-10.533-35.073c-0.336-27.565-31.487-158.332-61.63-258.62c-20.17-67.344-21.402-76.085-17.817-131.327
		c3.362-53.002,39.219-168.641,71.378-230.943c12.438-24.092,12.998-22.187,12.774,46.726c-0.112,62.302,5.154,91.436,16.472,91.436
		c3.698,0,4.258-3.138,1.457-8.964c-5.379-11.318-6.163-129.198-7.396-207.412c-1.905-116.76-83.816-253.13-35.073-376.053
		c0.294-0.734,0.585-1.466,0.874-2.197c0.731-0.289,1.463-0.581,2.197-0.874c122.923-48.743,259.293,33.168,376.053,35.073
		c78.214,1.233,196.094,2.017,207.412,7.396c5.827,2.801,8.964,2.241,8.964-1.457c0-11.317-29.134-16.584-91.436-16.472
		c-68.913,0.224-70.818-0.336-46.726-12.774c62.302-32.159,177.942-68.017,230.943-71.378c55.243-3.586,63.983-2.353,131.327,17.817
		c100.288,30.143,231.055,61.293,258.62,61.63c24.876,0.336,15.8,10.533,35.073,10.533c16.024,0,70.258,31.935,90.091,53.001
		c23.643,25.212,33.168,59.613,32.832,118.889c-0.224,39.443,1.008,48.743,5.379,41.236c3.137-6.163,5.266-30.927,4.93-58.156
		c-1.233-78.102-27.005-122.587-85.161-146.903c-26.221-10.981-29.358-19.049-7.396-19.049c45.942,0,125.164-29.246,152.169-56.251
		c22.747-22.635,127.965-66.784,140.628-58.94c9.188,5.603,31.711-3.362,25.1-9.973c-10.981-10.981-148.695-8.292-170.098,3.474
		c-48.295,26.333-53.338,54.122-8.628,46.839c24.316-3.922,22.635-1.457-16.808,25.324c-76.421,51.769-183.656,52.553-359.245,2.689
		c-156.988-44.597-161.582-45.606-211.894-45.718c-62.862-0.112-172.787,27.005-204.274,50.312
		c-8.628,6.387-69.922,30.703-92.108,36.418c-16.584,4.37-48.856,3.922-96.703-1.345c-13.446-1.457-45.046-8.628-105.667-23.867
		C290.713,141.602,245.694,138.801,161.658,161.658z"/>
	<path d="M3838.342,161.658c-84.036-22.857-129.055-20.057-221.163,3.061c-60.621,15.239-92.22,22.411-105.667,23.867
		c-47.847,5.267-80.118,5.715-96.702,1.345c-22.187-5.715-83.48-30.03-92.108-36.418c-31.487-23.307-141.412-50.424-204.274-50.312
		c-50.313,0.112-54.906,1.121-211.894,45.718c-175.589,49.864-282.824,49.08-359.245-2.689
		c-39.443-26.781-41.124-29.246-16.808-25.324c44.71,7.284,39.667-20.506-8.628-46.839c-21.402-11.766-159.116-14.455-170.098-3.474
		c-6.611,6.611,15.912,15.575,25.1,9.973c12.662-7.844,117.881,36.305,140.628,58.94c27.005,27.005,106.227,56.251,152.169,56.251
		c21.962,0,18.825,8.068-7.396,19.049c-58.156,24.316-83.928,68.801-85.161,146.903c-0.336,27.229,1.793,51.993,4.93,58.156
		c4.37,7.508,5.603-1.793,5.379-41.236c-0.336-59.277,9.188-93.677,32.832-118.889c19.833-21.066,74.068-53.001,90.091-53.001
		c19.273,0,10.197-10.197,35.073-10.533c27.565-0.336,158.332-31.487,258.62-61.63c67.344-20.17,76.084-21.402,131.327-17.817
		c53.001,3.362,168.641,39.219,230.943,71.378c24.092,12.438,22.187,12.998-46.726,12.774c-62.302-0.112-91.436,5.154-91.436,16.472
		c0,3.698,3.137,4.258,8.964,1.457c11.318-5.379,129.198-6.163,207.412-7.396c116.76-1.905,253.13-83.816,376.053-35.073
		c0.734,0.294,1.466,0.585,2.197,0.874c0.289,0.731,0.581,1.463,0.874,2.197c48.743,122.923-33.168,259.293-35.073,376.053
		c-1.233,78.214-2.017,196.094-7.396,207.412c-2.802,5.827-2.241,8.964,1.457,8.964c11.318,0,16.584-29.134,16.472-91.436
		c-0.224-68.913,0.336-70.818,12.774-46.726c32.159,62.302,68.017,177.942,71.378,230.943c3.586,55.243,2.353,63.983-17.817,131.327
		c-30.142,100.288-61.293,231.055-61.63,258.62c-0.336,24.876-10.533,15.8-10.533,35.073c0,16.024-31.935,70.258-53.001,90.091
		c-25.212,23.643-59.613,33.168-118.889,32.832c-39.443-0.224-48.743,1.008-41.236,5.379c6.163,3.137,30.927,5.266,58.156,4.93
		c78.102-1.233,122.587-27.005,146.903-85.161c10.981-26.221,19.049-29.358,19.049-7.396c0,45.942,29.246,125.164,56.251,152.169
		c22.635,22.747,66.784,127.965,58.94,140.628c-5.603,9.188,3.362,31.711,9.973,25.1c10.981-10.981,8.292-148.695-3.474-170.098
		c-26.333-48.295-54.122-53.338-46.839-8.628c3.922,24.316,1.457,22.635-25.324-16.808c-51.769-76.421-52.553-183.656-2.689-359.245
		c44.597-156.988,45.606-161.582,45.718-211.894c0.112-62.862-27.005-172.787-50.312-204.274
		c-6.387-8.628-30.703-69.922-36.417-92.108c-4.37-16.584-3.922-48.856,1.345-96.703c1.457-13.446,8.628-45.046,23.867-105.667
		C3858.398,290.713,3861.199,245.694,3838.342,161.658z"/>
	<path d="M2612.503,319.578c7.396-0.336,10.869,30.703,18.825,30.703c15.015,0-29.358-75.636,0.336-64.207
		c21.178,8.18,34.4,93.677,13.559,87.402C2610.598,363.167,2602.082,320.138,2612.503,319.578z"/>
	<path d="M319.578,1387.497c-0.336-7.396,30.703-10.869,30.703-18.825c0-15.015-75.636,29.358-64.207-0.336
		c8.18-21.178,93.677-34.401,87.402-13.559C363.167,1389.402,320.138,1397.918,319.578,1387.497z"/>
	<path d="M1387.497,3680.422c-7.396,0.336-10.869-30.703-18.825-30.703c-15.015,0,29.358,75.636-0.336,64.207
		c-21.178-8.18-34.401-93.677-13.559-87.402C1389.402,3636.833,1397.918,3679.862,1387.497,3680.422z"/>
	<path d="M3680.422,2612.503c0.336,7.396-30.703,10.869-30.703,18.825c0,15.015,75.636-29.358,64.207,0.336
		c-8.18,21.178-93.677,34.4-87.402,13.559C3636.833,2610.598,3679.862,2602.082,3680.422,2612.503z"/>
	<path d="M3680.422,1387.497c0.336-7.396-30.703-10.869-30.703-18.825c0-15.015,75.636,29.358,64.207-0.336
		c-8.18-21.178-93.677-34.401-87.402-13.559C3636.833,1389.402,3679.862,1397.918,3680.422,1387.497z"/>
	<path d="M1387.497,319.578c-7.396-0.336-10.869,30.703-18.825,30.703c-15.015,0,29.358-75.636-0.336-64.207
		c-21.178,8.18-34.401,93.677-13.559,87.402C1389.402,363.167,1397.918,320.138,1387.497,319.578z"/>
	<path d="M319.578,2612.503c-0.336,7.396,30.703,10.869,30.703,18.825c0,15.015-75.636-29.358-64.207,0.336
		c8.18,21.178,93.677,34.4,87.402,13.559C363.167,2610.598,320.138,2602.082,319.578,2612.503z"/>
	<path d="M2612.503,3680.422c7.396,0.336,10.869-30.703,18.825-30.703c15.015,0-29.358,75.636,0.336,64.207
		c21.178-8.18,34.4-93.677,13.559-87.402C2610.598,3636.833,2602.082,3679.862,2612.503,3680.422z"/>
	<path d="M2522.3,346.134c0-21.066,44.597-88.523,58.604-88.523c9.637,0,9.524,0.896-2.689,14.119
		c-13.222,14.455-35.409,50.536-35.073,56.923c0.112,2.017,5.939-3.362,12.886-11.878c10.869-13.334,12.662-14.007,12.55-5.154
		c-0.112,13.334-15.015,31.935-28.238,34.961C2523.868,350.505,2522.3,350.505,2522.3,346.134z"/>
	<path d="M346.134,1477.701c-21.066,0-88.523-44.598-88.523-58.604c0-9.637,0.896-9.525,14.119,2.689
		c14.455,13.222,50.536,35.409,56.923,35.073c2.017-0.112-3.362-5.939-11.878-12.886c-13.334-10.869-14.007-12.662-5.154-12.55
		c13.334,0.112,31.935,15.015,34.961,28.237C350.505,1476.132,350.505,1477.701,346.134,1477.701z"/>
	<path d="M1477.701,3653.865c0,21.066-44.598,88.523-58.604,88.523c-9.637,0-9.525-0.896,2.689-14.119
		c13.222-14.455,35.409-50.536,35.073-56.923c-0.112-2.017-5.939,3.362-12.886,11.878c-10.869,13.334-12.662,14.007-12.55,5.155
		c0.112-13.334,15.015-31.935,28.237-34.961C1476.132,3649.495,1477.701,3649.495,1477.701,3653.865z"/>
	<path d="M3653.865,2522.3c21.066,0,88.523,44.597,88.523,58.604c0,9.637-0.896,9.524-14.119-2.689
		c-14.455-13.222-50.536-35.409-56.923-35.073c-2.017,0.112,3.362,5.939,11.878,12.886c13.334,10.869,14.007,12.662,5.155,12.55
		c-13.334-0.112-31.935-15.015-34.961-28.238C3649.495,2523.868,3649.495,2522.3,3653.865,2522.3z"/>
	<path d="M3653.865,1477.701c21.066,0,88.523-44.598,88.523-58.604c0-9.637-0.896-9.525-14.119,2.689
		c-14.455,13.222-50.536,35.409-56.923,35.073c-2.017-0.112,3.362-5.939,11.878-12.886c13.334-10.869,14.007-12.662,5.155-12.55
		c-13.334,0.112-31.935,15.015-34.961,28.237C3649.495,1476.132,3649.495,1477.701,3653.865,1477.701z"/>
	<path d="M1477.701,346.134c0-21.066-44.598-88.523-58.604-88.523c-9.637,0-9.525,0.896,2.689,14.119
		c13.222,14.455,35.409,50.536,35.073,56.923c-0.112,2.017-5.939-3.362-12.886-11.878c-10.869-13.334-12.662-14.007-12.55-5.154
		c0.112,13.334,15.015,31.935,28.237,34.961C1476.132,350.505,1477.701,350.505,1477.701,346.134z"/>
	<path d="M346.134,2522.3c-21.066,0-88.523,44.597-88.523,58.604c0,9.637,0.896,9.524,14.119-2.689
		c14.455-13.222,50.536-35.409,56.923-35.073c2.017,0.112-3.362,5.939-11.878,12.886c-13.334,10.869-14.007,12.662-5.154,12.55
		c13.334-0.112,31.935-15.015,34.961-28.238C350.505,2523.868,350.505,2522.3,346.134,2522.3z"/>
	<path d="M2522.3,3653.865c0,21.066,44.597,88.523,58.604,88.523c9.637,0,9.524-0.896-2.689-14.119
		c-13.222-14.455-35.409-50.536-35.073-56.923c0.112-2.017,5.939,3.362,12.886,11.878c10.869,13.334,12.662,14.007,12.55,5.155
		c-0.112-13.334-15.015-31.935-28.238-34.961C2523.868,3649.495,2522.3,3649.495,2522.3,3653.865z"/>
	<path d="M2678.615,287.754c-3.025-30.03,10.869-51.657,44.261-68.577c36.866-18.713,37.202-16.696,2.914,17.817
		c-16.808,17.032-27.229,30.927-22.971,30.815c10.869-0.112,72.387-66.448,78.438-66.784c28.126-1.345-75.636,76.533-81.799,107.348
		C2694.75,331.792,2681.752,318.905,2678.615,287.754z"/>
	<path d="M287.754,1321.385c-30.03,3.025-51.657-10.869-68.577-44.261c-18.713-36.866-16.696-37.202,17.817-2.913
		c17.032,16.808,30.927,27.229,30.815,22.971c-0.112-10.869-66.448-72.387-66.784-78.438
		c-1.345-28.126,76.533,75.636,107.348,81.799C331.792,1305.25,318.905,1318.248,287.754,1321.385z"/>
	<path d="M1321.385,3712.246c3.025,30.031-10.869,51.657-44.261,68.577c-36.866,18.713-37.202,16.696-2.913-17.816
		c16.808-17.032,27.229-30.927,22.971-30.815c-10.869,0.112-72.387,66.448-78.438,66.784
		c-28.126,1.345,75.636-76.533,81.799-107.348C1305.25,3668.208,1318.248,3681.095,1321.385,3712.246z"/>
	<path d="M3712.246,2678.615c30.031-3.025,51.657,10.869,68.577,44.261c18.713,36.866,16.696,37.202-17.816,2.914
		c-17.032-16.808-30.927-27.229-30.815-22.971c0.112,10.869,66.448,72.387,66.784,78.438c1.345,28.126-76.533-75.636-107.348-81.799
		C3668.208,2694.75,3681.095,2681.752,3712.246,2678.615z"/>
	<path d="M3712.246,1321.385c30.031,3.025,51.657-10.869,68.577-44.261c18.713-36.866,16.696-37.202-17.816-2.913
		c-17.032,16.808-30.927,27.229-30.815,22.971c0.112-10.869,66.448-72.387,66.784-78.438c1.345-28.126-76.533,75.636-107.348,81.799
		C3668.208,1305.25,3681.095,1318.248,3712.246,1321.385z"/>
	<path d="M1321.385,287.754c3.025-30.03-10.869-51.657-44.261-68.577c-36.866-18.713-37.202-16.696-2.913,17.817
		c16.808,17.032,27.229,30.927,22.971,30.815c-10.869-0.112-72.387-66.448-78.438-66.784
		c-28.126-1.345,75.636,76.533,81.799,107.348C1305.25,331.792,1318.248,318.905,1321.385,287.754z"/>
	<path d="M287.754,2678.615c-30.03-3.025-51.657,10.869-68.577,44.261c-18.713,36.866-16.696,37.202,17.817,2.914
		c17.032-16.808,30.927-27.229,30.815-22.971c-0.112,10.869-66.448,72.387-66.784,78.438
		c-1.345,28.126,76.533-75.636,107.348-81.799C331.792,2694.75,318.905,2681.752,287.754,2678.615z"/>
	<path d="M2678.615,3712.246c-3.025,30.031,10.869,51.657,44.261,68.577c36.866,18.713,37.202,16.696,2.914-17.816
		c-16.808-17.032-27.229-30.927-22.971-30.815c10.869,0.112,72.387,66.448,78.438,66.784c28.126,1.345-75.636-76.533-81.799-107.348
		C2694.75,3668.208,2681.752,3681.095,2678.615,3712.246z"/>
	<path d="M3621.884,231.84c26.557,0,24.764-16.248,34.288-6.835c10.197,10.197-15.463,22.187-47.623,22.187
		C3550.842,247.191,3579.192,231.84,3621.884,231.84z"/>
	<path d="M231.84,378.116c0-26.557-16.248-24.764-6.835-34.288c10.197-10.197,22.187,15.463,22.187,47.623
		C247.191,449.158,231.84,420.808,231.84,378.116z"/>
	<path d="M378.116,3768.16c-26.557,0-24.764,16.248-34.288,6.835c-10.197-10.197,15.463-22.187,47.623-22.187
		C449.158,3752.809,420.808,3768.16,378.116,3768.16z"/>
	<path d="M3768.16,3621.884c0,26.557,16.248,24.764,6.835,34.288c-10.197,10.197-22.187-15.463-22.187-47.623
		C3752.809,3550.842,3768.16,3579.192,3768.16,3621.884z"/>
	<path d="M3768.16,378.116c0-26.557,16.248-24.764,6.835-34.288c-10.197-10.197-22.187,15.463-22.187,47.623
		C3752.809,449.158,3768.16,420.808,3768.16,378.116z"/>
	<path d="M378.116,231.84c-26.557,0-24.764-16.248-34.288-6.835c-10.197,10.197,15.463,22.187,47.623,22.187
		C449.158,247.191,420.808,231.84,378.116,231.84z"/>
	<path d="M231.84,3621.884c0,26.557-16.248,24.764-6.835,34.288c10.197,10.197,22.187-15.463,22.187-47.623
		C247.191,3550.842,231.84,3579.192,231.84,3621.884z"/>
	<path d="M3621.884,3768.16c26.557,0,24.764,16.248,34.288,6.835c10.197-10.197-15.463-22.187-47.623-22.187
		C3550.842,3752.809,3579.192,3768.16,3621.884,3768.16z"/>
	<path d="M3183.753,238.227c-3.81-4.93-6.835-12.438-6.835-16.696c0-14.343,8.292,10.645,20.842,9.861
		c11.878-0.672-5.715-1.457-5.715-13.222c0-6.051,3.25-5.267,15.464,3.362c17.592,12.55,19.385,18.825,6.387,22.187
		C3196.528,248.199,3190.589,247.191,3183.753,238.227z"/>
	<path d="M238.227,816.247c-4.93,3.81-12.438,6.835-16.696,6.835c-14.343,0,10.645-8.292,9.861-20.842
		c-0.672-11.878-1.457,5.715-13.222,5.715c-6.051,0-5.267-3.249,3.362-15.464c12.55-17.592,18.825-19.385,22.187-6.387
		C248.199,803.472,247.191,809.411,238.227,816.247z"/>
	<path d="M816.247,3761.773c3.81,4.93,6.835,12.438,6.835,16.696c0,14.343-8.292-10.645-20.842-9.861
		c-11.878,0.672,5.715,1.457,5.715,13.222c0,6.051-3.249,5.267-15.464-3.362c-17.592-12.55-19.385-18.825-6.387-22.187
		C803.472,3751.801,809.411,3752.809,816.247,3761.773z"/>
	<path d="M3761.773,3183.753c4.93-3.81,12.438-6.835,16.696-6.835c14.343,0-10.645,8.292-9.861,20.842
		c0.672,11.878,1.457-5.715,13.222-5.715c6.051,0,5.267,3.25-3.362,15.464c-12.55,17.592-18.825,19.385-22.187,6.387
		C3751.801,3196.528,3752.809,3190.589,3761.773,3183.753z"/>
	<path d="M3761.773,816.247c4.93,3.81,12.438,6.835,16.696,6.835c14.343,0-10.645-8.292-9.861-20.842
		c0.672-11.878,1.457,5.715,13.222,5.715c6.051,0,5.267-3.249-3.362-15.464c-12.55-17.592-18.825-19.385-22.187-6.387
		C3751.801,803.472,3752.809,809.411,3761.773,816.247z"/>
	<path d="M816.247,238.227c3.81-4.93,6.835-12.438,6.835-16.696c0-14.343-8.292,10.645-20.842,9.861
		c-11.878-0.672,5.715-1.457,5.715-13.222c0-6.051-3.249-5.267-15.464,3.362c-17.592,12.55-19.385,18.825-6.387,22.187
		C803.472,248.199,809.411,247.191,816.247,238.227z"/>
	<path d="M238.227,3183.753c-4.93-3.81-12.438-6.835-16.696-6.835c-14.343,0,10.645,8.292,9.861,20.842
		c-0.672,11.878-1.457-5.715-13.222-5.715c-6.051,0-5.267,3.25,3.362,15.464c12.55,17.592,18.825,19.385,22.187,6.387
		C248.199,3196.528,247.191,3190.589,238.227,3183.753z"/>
	<path d="M3183.753,3761.773c-3.81,4.93-6.835,12.438-6.835,16.696c0,14.343,8.292-10.645,20.842-9.861
		c11.878,0.672-5.715,1.457-5.715,13.222c0,6.051,3.25,5.267,15.464-3.362c17.592-12.55,19.385-18.825,6.387-22.187
		C3196.528,3751.801,3190.589,3752.809,3183.753,3761.773z"/>
	<path d="M3166.273,234.417c6.835-4.258,6.835,12.886,0,12.886C3159.774,247.191,3159.326,238.675,3166.273,234.417z"/>
	<path d="M234.417,833.727c-4.258-6.835,12.886-6.835,12.886,0C247.191,840.226,238.675,840.674,234.417,833.727z"/>
	<path d="M833.727,3765.583c-6.835,4.258-6.835-12.886,0-12.886C840.226,3752.809,840.674,3761.325,833.727,3765.583z"/>
	<path d="M3765.583,3166.273c4.258,6.835-12.886,6.835-12.886,0C3752.809,3159.774,3761.325,3159.326,3765.583,3166.273z"/>
	<path d="M3765.583,833.727c4.258-6.835-12.886-6.835-12.886,0C3752.809,840.226,3761.325,840.674,3765.583,833.727z"/>
	<path d="M833.727,234.417c-6.835-4.258-6.835,12.886,0,12.886C840.226,247.191,840.674,238.675,833.727,234.417z"/>
	<path d="M234.417,3166.273c-4.258,6.835,12.886,6.835,12.886,0C247.191,3159.774,238.675,3159.326,234.417,3166.273z"/>
	<path d="M3166.273,3765.583c6.835,4.258,6.835-12.886,0-12.886C3159.774,3752.809,3159.326,3761.325,3166.273,3765.583z"/>
	<path d="M3106.997,231.84c-11.542,0-9.301-13.783,3.698-22.859c11.878-8.292,34.961-10.981,34.961-4.146
		c0,5.939-21.402,10.757-24.876,21.514c-1.681,5.379,2.465,4.482,15.688-3.25c17.816-10.533,32.608-9.413,25.66,1.905
		c-3.25,5.267-34.289,20.842-43.477,21.851C3112.599,247.527,3118.202,231.84,3106.997,231.84z"/>
	<path d="M231.84,893.004c0,11.542-13.783,9.3-22.859-3.698c-8.292-11.878-10.981-34.961-4.146-34.961
		c5.939,0,10.757,21.402,21.514,24.876c5.379,1.681,4.482-2.465-3.25-15.688c-10.533-17.816-9.413-32.608,1.905-25.66
		c5.267,3.249,20.842,34.289,21.851,43.477C247.527,887.401,231.84,881.798,231.84,893.004z"/>
	<path d="M893.004,3768.16c11.542,0,9.3,13.783-3.698,22.859c-11.878,8.292-34.961,10.981-34.961,4.146
		c0-5.939,21.402-10.757,24.876-21.514c1.681-5.379-2.465-4.482-15.688,3.25c-17.816,10.533-32.608,9.413-25.66-1.905
		c3.249-5.267,34.289-20.842,43.477-21.851C887.401,3752.473,881.798,3768.16,893.004,3768.16z"/>
	<path d="M3768.16,3106.997c0-11.542,13.783-9.301,22.859,3.698c8.292,11.878,10.981,34.961,4.146,34.961
		c-5.939,0-10.757-21.402-21.514-24.876c-5.379-1.681-4.482,2.465,3.25,15.688c10.533,17.816,9.413,32.608-1.905,25.66
		c-5.267-3.25-20.842-34.289-21.851-43.477C3752.473,3112.599,3768.16,3118.202,3768.16,3106.997z"/>
	<path d="M3768.16,893.004c0,11.542,13.783,9.3,22.859-3.698c8.292-11.878,10.981-34.961,4.146-34.961
		c-5.939,0-10.757,21.402-21.514,24.876c-5.379,1.681-4.482-2.465,3.25-15.688c10.533-17.816,9.413-32.608-1.905-25.66
		c-5.267,3.249-20.842,34.289-21.851,43.477C3752.473,887.401,3768.16,881.798,3768.16,893.004z"/>
	<path d="M893.004,231.84c11.542,0,9.3-13.783-3.698-22.859c-11.878-8.292-34.961-10.981-34.961-4.146
		c0,5.939,21.402,10.757,24.876,21.514c1.681,5.379-2.465,4.482-15.688-3.25c-17.816-10.533-32.608-9.413-25.66,1.905
		c3.249,5.267,34.289,20.842,43.477,21.851C887.401,247.527,881.798,231.84,893.004,231.84z"/>
	<path d="M231.84,3106.997c0-11.542-13.783-9.301-22.859,3.698c-8.292,11.878-10.981,34.961-4.146,34.961
		c5.939,0,10.757-21.402,21.514-24.876c5.379-1.681,4.482,2.465-3.25,15.688c-10.533,17.816-9.413,32.608,1.905,25.66
		c5.267-3.25,20.842-34.289,21.851-43.477C247.527,3112.599,231.84,3118.202,231.84,3106.997z"/>
	<path d="M3106.997,3768.16c-11.542,0-9.301,13.783,3.698,22.859c11.878,8.292,34.961,10.981,34.961,4.146
		c0-5.939-21.402-10.757-24.876-21.514c-1.681-5.379,2.465-4.482,15.688,3.25c17.816,10.533,32.608,9.413,25.66-1.905
		c-3.25-5.267-34.289-20.842-43.477-21.851C3112.599,3752.473,3118.202,3768.16,3106.997,3768.16z"/>
	<path d="M2805.684,237.33c0-7.732,42.133-42.132,64.431-52.441c29.806-13.895,46.502-12.886,23.195,1.345
		c-9.973,6.051-23.419,14.343-30.031,18.377c-30.142,18.377,11.99,11.766,54.234-22.971c27.229-22.299,29.246-15.463,2.802,9.749
		c-14.231,13.671-29.918,21.626-59.389,30.143c-22.074,6.387-41.348,13.671-42.804,16.024
		C2814.424,243.605,2805.684,243.269,2805.684,237.33z"/>
	<path d="M237.33,1194.316c-7.732,0-42.132-42.132-52.441-64.431c-13.895-29.807-12.886-46.502,1.345-23.195
		c6.051,9.973,14.343,23.419,18.377,30.031c18.377,30.142,11.766-11.99-22.971-54.234c-22.299-27.229-15.463-29.246,9.749-2.801
		c13.671,14.231,21.626,29.918,30.143,59.389c6.387,22.075,13.671,41.348,16.024,42.805
		C243.605,1185.576,243.269,1194.316,237.33,1194.316z"/>
	<path d="M1194.316,3762.67c0,7.732-42.132,42.132-64.431,52.441c-29.807,13.895-46.502,12.886-23.195-1.345
		c9.973-6.051,23.419-14.343,30.031-18.377c30.142-18.377-11.99-11.766-54.234,22.971c-27.229,22.299-29.246,15.463-2.801-9.749
		c14.231-13.671,29.918-21.626,59.389-30.143c22.075-6.387,41.348-13.671,42.805-16.024
		C1185.576,3756.395,1194.316,3756.731,1194.316,3762.67z"/>
	<path d="M3762.67,2805.684c7.732,0,42.132,42.133,52.441,64.431c13.895,29.806,12.886,46.502-1.345,23.195
		c-6.051-9.973-14.343-23.419-18.377-30.031c-18.377-30.142-11.766,11.99,22.971,54.234c22.299,27.229,15.463,29.246-9.749,2.802
		c-13.671-14.231-21.626-29.918-30.143-59.389c-6.387-22.074-13.671-41.348-16.024-42.804
		C3756.395,2814.424,3756.731,2805.684,3762.67,2805.684z"/>
	<path d="M3762.67,1194.316c7.732,0,42.132-42.132,52.441-64.431c13.895-29.807,12.886-46.502-1.345-23.195
		c-6.051,9.973-14.343,23.419-18.377,30.031c-18.377,30.142-11.766-11.99,22.971-54.234c22.299-27.229,15.463-29.246-9.749-2.801
		c-13.671,14.231-21.626,29.918-30.143,59.389c-6.387,22.075-13.671,41.348-16.024,42.805
		C3756.395,1185.576,3756.731,1194.316,3762.67,1194.316z"/>
	<path d="M1194.316,237.33c0-7.732-42.132-42.132-64.431-52.441c-29.807-13.895-46.502-12.886-23.195,1.345
		c9.973,6.051,23.419,14.343,30.031,18.377c30.142,18.377-11.99,11.766-54.234-22.971c-27.229-22.299-29.246-15.463-2.801,9.749
		c14.231,13.671,29.918,21.626,59.389,30.143c22.075,6.387,41.348,13.671,42.805,16.024
		C1185.576,243.605,1194.316,243.269,1194.316,237.33z"/>
	<path d="M237.33,2805.684c-7.732,0-42.132,42.133-52.441,64.431c-13.895,29.806-12.886,46.502,1.345,23.195
		c6.051-9.973,14.343-23.419,18.377-30.031c18.377-30.142,11.766,11.99-22.971,54.234c-22.299,27.229-15.463,29.246,9.749,2.802
		c13.671-14.231,21.626-29.918,30.143-59.389c6.387-22.074,13.671-41.348,16.024-42.804
		C243.605,2814.424,243.269,2805.684,237.33,2805.684z"/>
	<path d="M2805.684,3762.67c0,7.732,42.133,42.132,64.431,52.441c29.806,13.895,46.502,12.886,23.195-1.345
		c-9.973-6.051-23.419-14.343-30.031-18.377c-30.142-18.377,11.99-11.766,54.234,22.971c27.229,22.299,29.246,15.463,2.802-9.749
		c-14.231-13.671-29.918-21.626-59.389-30.143c-22.074-6.387-41.348-13.671-42.804-16.024
		C2814.424,3756.395,2805.684,3756.731,2805.684,3762.67z"/>
	<path d="M3537.172,231.84c0-12.326,49.976-24.316,89.195-21.402c16.92,1.345,3.362,10.981-16.024,11.43
		c-10.421,0.224-29.47,3.362-42.244,7.059C3537.508,237.666,3537.172,237.778,3537.172,231.84z"/>
	<path d="M231.84,462.828c-12.326,0-24.316-49.976-21.402-89.195c1.345-16.92,10.981-3.362,11.43,16.024
		c0.224,10.421,3.362,29.47,7.059,42.244C237.666,462.492,237.778,462.828,231.84,462.828z"/>
	<path d="M462.828,3768.16c0,12.326-49.976,24.316-89.195,21.402c-16.92-1.345-3.362-10.981,16.024-11.429
		c10.421-0.224,29.47-3.362,42.244-7.059C462.492,3762.334,462.828,3762.222,462.828,3768.16z"/>
	<path d="M3768.16,3537.172c12.326,0,24.316,49.976,21.402,89.195c-1.345,16.92-10.981,3.362-11.429-16.024
		c-0.224-10.421-3.362-29.47-7.059-42.244C3762.334,3537.508,3762.222,3537.172,3768.16,3537.172z"/>
	<path d="M3768.16,462.828c12.326,0,24.316-49.976,21.402-89.195c-1.345-16.92-10.981-3.362-11.429,16.024
		c-0.224,10.421-3.362,29.47-7.059,42.244C3762.334,462.492,3762.222,462.828,3768.16,462.828z"/>
	<path d="M462.828,231.84c0-12.326-49.976-24.316-89.195-21.402c-16.92,1.345-3.362,10.981,16.024,11.43
		c10.421,0.224,29.47,3.362,42.244,7.059C462.492,237.666,462.828,237.778,462.828,231.84z"/>
	<path d="M231.84,3537.172c-12.326,0-24.316,49.976-21.402,89.195c1.345,16.92,10.981,3.362,11.43-16.024
		c0.224-10.421,3.362-29.47,7.059-42.244C237.666,3537.508,237.778,3537.172,231.84,3537.172z"/>
	<path d="M3537.172,3768.16c0,12.326,49.976,24.316,89.195,21.402c16.92-1.345,3.362-10.981-16.024-11.429
		c-10.421-0.224-29.47-3.362-42.244-7.059C3537.508,3762.334,3537.172,3762.222,3537.172,3768.16z"/>
	<path d="M2954.828,209.093c9.637-25.324,37.65-54.458,65.439-68.017c32.159-15.8,55.243-13.334,29.806,3.138
		c-25.548,16.472-51.321,40.339-47.623,44.037c3.25,3.25,56.251-30.815,81.463-66.896v13.671c0,25.884-43.589,63.086-90.764,77.653
		C2946.311,227.021,2947.992,227.245,2954.828,209.093z"/>
	<path d="M209.093,1045.172c-25.324-9.637-54.458-37.65-68.017-65.439c-15.8-32.159-13.334-55.243,3.138-29.806
		c16.472,25.548,40.339,51.321,44.037,47.623c3.25-3.249-30.815-56.251-66.896-81.463h13.671c25.884,0,63.086,43.589,77.653,90.764
		C227.021,1053.689,227.245,1052.008,209.093,1045.172z"/>
	<path d="M1045.172,3790.907c-9.637,25.324-37.65,54.458-65.439,68.017c-32.159,15.8-55.243,13.334-29.806-3.137
		c25.548-16.472,51.321-40.339,47.623-44.037c-3.249-3.25-56.251,30.815-81.463,66.896v-13.671
		c0-25.885,43.589-63.086,90.764-77.653C1053.689,3772.979,1052.008,3772.755,1045.172,3790.907z"/>
	<path d="M3790.907,2954.828c25.324,9.637,54.458,37.65,68.017,65.439c15.8,32.159,13.334,55.243-3.137,29.806
		c-16.472-25.548-40.339-51.321-44.037-47.623c-3.25,3.25,30.815,56.251,66.896,81.463h-13.671
		c-25.885,0-63.086-43.589-77.653-90.764C3772.979,2946.311,3772.755,2947.992,3790.907,2954.828z"/>
	<path d="M3790.907,1045.172c25.324-9.637,54.458-37.65,68.017-65.439c15.8-32.159,13.334-55.243-3.137-29.806
		c-16.472,25.548-40.339,51.321-44.037,47.623c-3.25-3.249,30.815-56.251,66.896-81.463h-13.671
		c-25.885,0-63.086,43.589-77.653,90.764C3772.979,1053.689,3772.755,1052.008,3790.907,1045.172z"/>
	<path d="M1045.172,209.093c-9.637-25.324-37.65-54.458-65.439-68.017c-32.159-15.8-55.243-13.334-29.806,3.138
		c25.548,16.472,51.321,40.339,47.623,44.037c-3.249,3.25-56.251-30.815-81.463-66.896v13.671c0,25.884,43.589,63.086,90.764,77.653
		C1053.689,227.021,1052.008,227.245,1045.172,209.093z"/>
	<path d="M209.093,2954.828c-25.324,9.637-54.458,37.65-68.017,65.439c-15.8,32.159-13.334,55.243,3.138,29.806
		c16.472-25.548,40.339-51.321,44.037-47.623c3.25,3.25-30.815,56.251-66.896,81.463h13.671c25.884,0,63.086-43.589,77.653-90.764
		C227.021,2946.311,227.245,2947.992,209.093,2954.828z"/>
	<path d="M2954.828,3790.907c9.637,25.324,37.65,54.458,65.439,68.017c32.159,15.8,55.243,13.334,29.806-3.137
		c-25.548-16.472-51.321-40.339-47.623-44.037c3.25-3.25,56.251,30.815,81.463,66.896v-13.671c0-25.885-43.589-63.086-90.764-77.653
		C2946.311,3772.979,2947.992,3772.755,2954.828,3790.907z"/>
	<path d="M3215.241,200.128c5.939,0,11.878,11.093,0,11.093C3203.363,211.222,3209.302,200.128,3215.241,200.128z"/>
	<path d="M200.128,784.759c0-5.939,11.093-11.878,11.093,0S200.128,790.698,200.128,784.759z"/>
	<path d="M784.759,3799.872c-5.939,0-11.878-11.094,0-11.094S790.698,3799.872,784.759,3799.872z"/>
	<path d="M3799.872,3215.241c0,5.939-11.094,11.878-11.094,0C3788.778,3203.363,3799.872,3209.302,3799.872,3215.241z"/>
	<path d="M3799.872,784.759c0-5.939-11.094-11.878-11.094,0S3799.872,790.698,3799.872,784.759z"/>
	<path d="M784.759,200.128c-5.939,0-11.878,11.093,0,11.093S790.698,200.128,784.759,200.128z"/>
	<path d="M200.128,3215.241c0,5.939,11.093,11.878,11.093,0C211.222,3203.363,200.128,3209.302,200.128,3215.241z"/>
	<path d="M3215.241,3799.872c5.939,0,11.878-11.094,0-11.094C3203.363,3788.778,3209.302,3799.872,3215.241,3799.872z"/>
	<path d="M3157.197,199.904c3.137-9.525,14.231-11.093,14.231-2.017c0,4.482-3.698,8.18-8.18,8.18
		C3158.766,206.067,3156.076,203.266,3157.197,199.904z"/>
	<path d="M199.904,842.803c-9.525-3.138-11.093-14.231-2.017-14.231c4.482,0,8.18,3.698,8.18,8.18
		C206.067,841.234,203.266,843.924,199.904,842.803z"/>
	<path d="M842.803,3800.096c-3.138,9.524-14.231,11.093-14.231,2.017c0-4.482,3.698-8.18,8.18-8.18
		C841.234,3793.933,843.924,3796.734,842.803,3800.096z"/>
	<path d="M3800.096,3157.197c9.524,3.137,11.093,14.231,2.017,14.231c-4.482,0-8.18-3.698-8.18-8.18
		C3793.933,3158.766,3796.734,3156.076,3800.096,3157.197z"/>
	<path d="M3800.096,842.803c9.524-3.138,11.093-14.231,2.017-14.231c-4.482,0-8.18,3.698-8.18,8.18
		C3793.933,841.234,3796.734,843.924,3800.096,842.803z"/>
	<path d="M842.803,199.904c-3.138-9.525-14.231-11.093-14.231-2.017c0,4.482,3.698,8.18,8.18,8.18
		C841.234,206.067,843.924,203.266,842.803,199.904z"/>
	<path d="M199.904,3157.197c-9.525,3.137-11.093,14.231-2.017,14.231c4.482,0,8.18-3.698,8.18-8.18
		C206.067,3158.766,203.266,3156.076,199.904,3157.197z"/>
	<path d="M3157.197,3800.096c3.137,9.524,14.231,11.093,14.231,2.017c0-4.482-3.698-8.18-8.18-8.18
		C3158.766,3793.933,3156.076,3796.734,3157.197,3800.096z"/>
	<path d="M3110.358,188.475c5.379,3.25,0.784,12.438-6.275,12.438C3094.11,200.913,3101.394,182.872,3110.358,188.475z"/>
	<path d="M188.475,889.642c3.25-5.379,12.438-0.784,12.438,6.275C200.913,905.89,182.872,898.606,188.475,889.642z"/>
	<path d="M889.642,3811.525c-5.379-3.25-0.784-12.438,6.275-12.438C905.89,3799.087,898.606,3817.128,889.642,3811.525z"/>
	<path d="M3811.525,3110.358c-3.25,5.379-12.438,0.784-12.438-6.275C3799.087,3094.11,3817.128,3101.394,3811.525,3110.358z"/>
	<path d="M3811.525,889.642c-3.25-5.379-12.438-0.784-12.438,6.275C3799.087,905.89,3817.128,898.606,3811.525,889.642z"/>
	<path d="M889.642,188.475c-5.379,3.25-0.784,12.438,6.275,12.438C905.89,200.913,898.606,182.872,889.642,188.475z"/>
	<path d="M188.475,3110.358c3.25,5.379,12.438,0.784,12.438-6.275C200.913,3094.11,182.872,3101.394,188.475,3110.358z"/>
	<path d="M3110.358,3811.525c5.379-3.25,0.784-12.438-6.275-12.438C3094.11,3799.087,3101.394,3817.128,3110.358,3811.525z"/>
	<path d="M3186.891,193.405c0-1.345,6.275-8.18,13.895-15.239c18.601-17.256,9.861-25.66-6.387-6.835
		c-13.783,16.024-17.816,17.48-17.816,6.387c0-9.525,18.153-28.35,27.453-28.35c16.136,0,22.075,25.884,8.404,36.418
		C3200.674,194.75,3186.891,198.896,3186.891,193.405z"/>
	<path d="M193.405,813.109c-1.345,0-8.18-6.275-15.239-13.895c-17.256-18.601-25.66-9.861-6.835,6.387
		c16.024,13.783,17.48,17.816,6.387,17.816c-9.525,0-28.35-18.153-28.35-27.453c0-16.136,25.884-22.075,36.418-8.404
		C194.75,799.326,198.896,813.109,193.405,813.109z"/>
	<path d="M813.109,3806.595c0,1.345-6.275,8.18-13.895,15.239c-18.601,17.256-9.861,25.66,6.387,6.835
		c13.783-16.024,17.816-17.48,17.816-6.387c0,9.525-18.153,28.35-27.453,28.35c-16.136,0-22.075-25.884-8.404-36.417
		C799.326,3805.25,813.109,3801.104,813.109,3806.595z"/>
	<path d="M3806.595,3186.891c1.345,0,8.18,6.275,15.239,13.895c17.256,18.601,25.66,9.861,6.835-6.387
		c-16.024-13.783-17.48-17.816-6.387-17.816c9.525,0,28.35,18.153,28.35,27.453c0,16.136-25.884,22.075-36.417,8.404
		C3805.25,3200.674,3801.104,3186.891,3806.595,3186.891z"/>
	<path d="M3806.595,813.109c1.345,0,8.18-6.275,15.239-13.895c17.256-18.601,25.66-9.861,6.835,6.387
		c-16.024,13.783-17.48,17.816-6.387,17.816c9.525,0,28.35-18.153,28.35-27.453c0-16.136-25.884-22.075-36.417-8.404
		C3805.25,799.326,3801.104,813.109,3806.595,813.109z"/>
	<path d="M813.109,193.405c0-1.345-6.275-8.18-13.895-15.239c-18.601-17.256-9.861-25.66,6.387-6.835
		c13.783,16.024,17.816,17.48,17.816,6.387c0-9.525-18.153-28.35-27.453-28.35c-16.136,0-22.075,25.884-8.404,36.418
		C799.326,194.75,813.109,198.896,813.109,193.405z"/>
	<path d="M193.405,3186.891c-1.345,0-8.18,6.275-15.239,13.895c-17.256,18.601-25.66,9.861-6.835-6.387
		c16.024-13.783,17.48-17.816,6.387-17.816c-9.525,0-28.35,18.153-28.35,27.453c0,16.136,25.884,22.075,36.418,8.404
		C194.75,3200.674,198.896,3186.891,193.405,3186.891z"/>
	<path d="M3186.891,3806.595c0,1.345,6.275,8.18,13.895,15.239c18.601,17.256,9.861,25.66-6.387,6.835
		c-13.783-16.024-17.816-17.48-17.816-6.387c0,9.525,18.153,28.35,27.453,28.35c16.136,0,22.075-25.884,8.404-36.417
		C3200.674,3805.25,3186.891,3801.104,3186.891,3806.595z"/>
	<path d="M3124.925,181.191c-10.085-8.18-10.757-10.869-5.266-21.178l6.275-11.766l9.861,16.136
		C3152.042,190.94,3146.888,198.896,3124.925,181.191z"/>
	<path d="M181.191,875.075c-8.18,10.085-10.869,10.757-21.178,5.266l-11.766-6.275l16.136-9.861
		C190.94,847.958,198.896,853.112,181.191,875.075z"/>
	<path d="M875.075,3818.809c10.085,8.18,10.757,10.869,5.266,21.178l-6.275,11.766l-9.861-16.136
		C847.958,3809.06,853.112,3801.104,875.075,3818.809z"/>
	<path d="M3818.809,3124.925c8.18-10.085,10.869-10.757,21.178-5.266l11.766,6.275l-16.136,9.861
		C3809.06,3152.042,3801.104,3146.888,3818.809,3124.925z"/>
	<path d="M3818.809,875.075c8.18,10.085,10.869,10.757,21.178,5.266l11.766-6.275l-16.136-9.861
		C3809.06,847.958,3801.104,853.112,3818.809,875.075z"/>
	<path d="M875.075,181.191c10.085-8.18,10.757-10.869,5.266-21.178l-6.275-11.766l-9.861,16.136
		C847.958,190.94,853.112,198.896,875.075,181.191z"/>
	<path d="M181.191,3124.925c-8.18-10.085-10.869-10.757-21.178-5.266l-11.766,6.275l16.136,9.861
		C190.94,3152.042,198.896,3146.888,181.191,3124.925z"/>
	<path d="M3124.925,3818.809c-10.085,8.18-10.757,10.869-5.266,21.178l6.275,11.766l9.861-16.136
		C3152.042,3809.06,3146.888,3801.104,3124.925,3818.809z"/>
	<path d="M3148.12,166.064c-14.791-16.808-16.584-28.013-3.81-23.643c11.99,4.146,21.851,17.032,21.851,28.462
		C3166.273,183.656,3162.799,182.648,3148.12,166.064z"/>
	<path d="M166.064,851.88c-16.808,14.791-28.013,16.584-23.643,3.81c4.146-11.99,17.032-21.851,28.462-21.851
		C183.656,833.727,182.648,837.201,166.064,851.88z"/>
	<path d="M851.88,3833.936c14.791,16.808,16.584,28.014,3.81,23.644c-11.99-4.146-21.851-17.032-21.851-28.462
		C833.727,3816.344,837.201,3817.352,851.88,3833.936z"/>
	<path d="M3833.936,3148.12c16.808-14.791,28.014-16.584,23.644-3.81c-4.146,11.99-17.032,21.851-28.462,21.851
		C3816.344,3166.273,3817.352,3162.799,3833.936,3148.12z"/>
	<path d="M3833.936,851.88c16.808,14.791,28.014,16.584,23.644,3.81c-4.146-11.99-17.032-21.851-28.462-21.851
		C3816.344,833.727,3817.352,837.201,3833.936,851.88z"/>
	<path d="M851.88,166.064c14.791-16.808,16.584-28.013,3.81-23.643c-11.99,4.146-21.851,17.032-21.851,28.462
		C833.727,183.656,837.201,182.648,851.88,166.064z"/>
	<path d="M166.064,3148.12c-16.808-14.791-28.013-16.584-23.643-3.81c4.146,11.99,17.032,21.851,28.462,21.851
		C183.656,3166.273,182.648,3162.799,166.064,3148.12z"/>
	<path d="M3148.12,3833.936c-14.791,16.808-16.584,28.014-3.81,23.644c11.99-4.146,21.851-17.032,21.851-28.462
		C3166.273,3816.344,3162.799,3817.352,3148.12,3833.936z"/>
	<path d="M2657.997,159.117c-31.487-19.385-47.735-63.086-21.514-57.82c26.108,5.267,59.836,44.373,45.718,53.001
		c-3.698,2.241-5.155,6.723-3.138,9.861C2684.441,172.899,2677.494,171.218,2657.997,159.117z"/>
	<path d="M159.117,1342.003c-19.385,31.487-63.086,47.735-57.82,21.514c5.267-26.109,44.373-59.837,53.001-45.718
		c2.241,3.698,6.723,5.155,9.861,3.138C172.899,1315.559,171.218,1322.506,159.117,1342.003z"/>
	<path d="M1342.003,3840.884c31.487,19.385,47.735,63.086,21.514,57.82c-26.109-5.267-59.837-44.374-45.718-53.002
		c3.698-2.241,5.155-6.723,3.138-9.861C1315.559,3827.101,1322.506,3828.782,1342.003,3840.884z"/>
	<path d="M3840.884,2657.997c19.385-31.487,63.086-47.735,57.82-21.514c-5.267,26.108-44.374,59.836-53.002,45.718
		c-2.241-3.698-6.723-5.155-9.861-3.138C3827.101,2684.441,3828.782,2677.494,3840.884,2657.997z"/>
	<path d="M3840.884,1342.003c19.385,31.487,63.086,47.735,57.82,21.514c-5.267-26.109-44.374-59.837-53.002-45.718
		c-2.241,3.698-6.723,5.155-9.861,3.138C3827.101,1315.559,3828.782,1322.506,3840.884,1342.003z"/>
	<path d="M1342.003,159.117c31.487-19.385,47.735-63.086,21.514-57.82c-26.109,5.267-59.837,44.373-45.718,53.001
		c3.698,2.241,5.155,6.723,3.138,9.861C1315.559,172.899,1322.506,171.218,1342.003,159.117z"/>
	<path d="M159.117,2657.997c-19.385-31.487-63.086-47.735-57.82-21.514c5.267,26.108,44.373,59.836,53.001,45.718
		c2.241-3.698,6.723-5.155,9.861-3.138C172.899,2684.441,171.218,2677.494,159.117,2657.997z"/>
	<path d="M2657.997,3840.884c-31.487,19.385-47.735,63.086-21.514,57.82c26.108-5.267,59.836-44.374,45.718-53.002
		c-3.698-2.241-5.155-6.723-3.138-9.861C2684.441,3827.101,2677.494,3828.782,2657.997,3840.884z"/>
	<path d="M2640.964,112.278c-0.112,7.62,26.109,42.244,32.048,42.244C2691.277,154.522,2641.077,103.65,2640.964,112.278z"/>
	<path d="M112.278,1359.036c7.62,0.112,42.244-26.109,42.244-32.047C154.522,1308.724,103.65,1358.923,112.278,1359.036z"/>
	<path d="M1359.036,3887.722c0.112-7.62-26.109-42.244-32.047-42.244C1308.724,3845.478,1358.923,3896.35,1359.036,3887.722z"/>
	<path d="M3887.722,2640.964c-7.62-0.112-42.244,26.109-42.244,32.048C3845.478,2691.277,3896.35,2641.077,3887.722,2640.964z"/>
	<path d="M3887.722,1359.036c-7.62,0.112-42.244-26.109-42.244-32.047C3845.478,1308.724,3896.35,1358.923,3887.722,1359.036z"/>
	<path d="M1359.036,112.278c0.112,7.62-26.109,42.244-32.047,42.244C1308.724,154.522,1358.923,103.65,1359.036,112.278z"/>
	<path d="M112.278,2640.964c7.62-0.112,42.244,26.109,42.244,32.048C154.522,2691.277,103.65,2641.077,112.278,2640.964z"/>
	<path d="M2640.964,3887.722c-0.112-7.62,26.109-42.244,32.048-42.244C2691.277,3845.478,2641.077,3896.35,2640.964,3887.722z"/>
	<path d="M3501.538,102.978c-7.732,0-7.059-8.964,0.896-11.766c8.292-3.025,86.281,60.845,86.281,70.706
		C3588.716,182.312,3511.959,102.978,3501.538,102.978z"/>
	<path d="M102.978,498.462c0,7.732-8.964,7.059-11.766-0.896c-3.025-8.292,60.845-86.282,70.706-86.282
		C182.312,411.284,102.978,488.041,102.978,498.462z"/>
	<path d="M498.462,3897.022c7.732,0,7.059,8.964-0.896,11.766c-8.292,3.025-86.282-60.845-86.282-70.706
		C411.284,3817.688,488.041,3897.022,498.462,3897.022z"/>
	<path d="M3897.022,3501.538c0-7.732,8.964-7.059,11.766,0.896c3.025,8.292-60.845,86.281-70.706,86.281
		C3817.688,3588.716,3897.022,3511.959,3897.022,3501.538z"/>
	<path d="M3897.022,498.462c0,7.732,8.964,7.059,11.766-0.896c3.025-8.292-60.845-86.282-70.706-86.282
		C3817.688,411.284,3897.022,488.041,3897.022,498.462z"/>
	<path d="M498.462,102.978c7.732,0,7.059-8.964-0.896-11.766c-8.292-3.025-86.282,60.845-86.282,70.706
		C411.284,182.312,488.041,102.978,498.462,102.978z"/>
	<path d="M102.978,3501.538c0-7.732-8.964-7.059-11.766,0.896c-3.025,8.292,60.845,86.281,70.706,86.281
		C182.312,3588.716,102.978,3511.959,102.978,3501.538z"/>
	<path d="M3501.538,3897.022c-7.732,0-7.059,8.964,0.896,11.766c8.292,3.025,86.281-60.845,86.281-70.706
		C3588.716,3817.688,3511.959,3897.022,3501.538,3897.022z"/>
	<path d="M2776.886,151.385c-44.374-21.066-57.372-58.716-20.17-58.716c13.11,0,61.07,23.195,69.922,33.84
		c11.654,14.007,2.017,12.214-26.445-4.818c-39.779-23.98-88.859-36.642-24.988-3.474c46.615,24.204,61.742,34.176,57.932,37.986
		C2826.75,162.59,2794.478,159.789,2776.886,151.385z"/>
	<path d="M151.385,1223.114c-21.066,44.373-58.716,57.371-58.716,20.17c0-13.11,23.195-61.069,33.84-69.922
		c14.007-11.653,12.214-2.017-4.818,26.445c-23.98,39.779-36.642,88.859-3.474,24.988c24.204-46.615,34.176-61.742,37.986-57.932
		C162.59,1173.25,159.789,1205.522,151.385,1223.114z"/>
	<path d="M1223.114,3848.615c44.373,21.066,57.371,58.716,20.17,58.716c-13.11,0-61.069-23.195-69.922-33.84
		c-11.653-14.007-2.017-12.214,26.445,4.818c39.779,23.979,88.859,36.642,24.988,3.474c-46.615-24.204-61.742-34.177-57.932-37.986
		C1173.25,3837.41,1205.522,3840.211,1223.114,3848.615z"/>
	<path d="M3848.615,2776.886c21.066-44.374,58.716-57.372,58.716-20.17c0,13.11-23.195,61.07-33.84,69.922
		c-14.007,11.654-12.214,2.017,4.818-26.445c23.979-39.779,36.642-88.859,3.474-24.988c-24.204,46.615-34.177,61.742-37.986,57.932
		C3837.41,2826.75,3840.211,2794.478,3848.615,2776.886z"/>
	<path d="M3848.615,1223.114c21.066,44.373,58.716,57.371,58.716,20.17c0-13.11-23.195-61.069-33.84-69.922
		c-14.007-11.653-12.214-2.017,4.818,26.445c23.979,39.779,36.642,88.859,3.474,24.988c-24.204-46.615-34.177-61.742-37.986-57.932
		C3837.41,1173.25,3840.211,1205.522,3848.615,1223.114z"/>
	<path d="M1223.114,151.385c44.373-21.066,57.371-58.716,20.17-58.716c-13.11,0-61.069,23.195-69.922,33.84
		c-11.653,14.007-2.017,12.214,26.445-4.818c39.779-23.98,88.859-36.642,24.988-3.474c-46.615,24.204-61.742,34.176-57.932,37.986
		C1173.25,162.59,1205.522,159.789,1223.114,151.385z"/>
	<path d="M151.385,2776.886c-21.066-44.374-58.716-57.372-58.716-20.17c0,13.11,23.195,61.07,33.84,69.922
		c14.007,11.654,12.214,2.017-4.818-26.445c-23.98-39.779-36.642-88.859-3.474-24.988c24.204,46.615,34.176,61.742,37.986,57.932
		C162.59,2826.75,159.789,2794.478,151.385,2776.886z"/>
	<path d="M2776.886,3848.615c-44.374,21.066-57.372,58.716-20.17,58.716c13.11,0,61.07-23.195,69.922-33.84
		c11.654-14.007,2.017-12.214-26.445,4.818c-39.779,23.979-88.859,36.642-24.988,3.474c46.615-24.204,61.742-34.177,57.932-37.986
		C2826.75,3837.41,2794.478,3840.211,2776.886,3848.615z"/>
	<path d="M3409.766,138.274c-7.508-12.55-7.508-14.343,0-21.851c10.869-10.869,13.11-10.421,15.015,2.913
		c3.137,21.066,12.662,15.463,12.326-7.171c-0.448-29.47,7.283-30.479,18.377-2.353
		C3472.404,152.842,3433.298,177.269,3409.766,138.274z"/>
	<path d="M138.274,590.234c-12.55,7.508-14.343,7.508-21.851,0c-10.869-10.869-10.421-13.11,2.913-15.015
		c21.066-3.138,15.463-12.662-7.171-12.326c-29.47,0.448-30.479-7.284-2.353-18.377
		C152.842,527.596,177.269,566.702,138.274,590.234z"/>
	<path d="M590.234,3861.726c7.508,12.55,7.508,14.343,0,21.85c-10.869,10.869-13.11,10.421-15.015-2.913
		c-3.138-21.066-12.662-15.463-12.326,7.171c0.448,29.47-7.284,30.479-18.377,2.353
		C527.596,3847.158,566.702,3822.731,590.234,3861.726z"/>
	<path d="M3861.726,3409.766c12.55-7.508,14.343-7.508,21.85,0c10.869,10.869,10.421,13.11-2.913,15.015
		c-21.066,3.137-15.463,12.662,7.171,12.326c29.47-0.448,30.479,7.283,2.353,18.377
		C3847.158,3472.404,3822.731,3433.298,3861.726,3409.766z"/>
	<path d="M3861.726,590.234c12.55,7.508,14.343,7.508,21.85,0c10.869-10.869,10.421-13.11-2.913-15.015
		c-21.066-3.138-15.463-12.662,7.171-12.326c29.47,0.448,30.479-7.284,2.353-18.377
		C3847.158,527.596,3822.731,566.702,3861.726,590.234z"/>
	<path d="M590.234,138.274c7.508-12.55,7.508-14.343,0-21.851c-10.869-10.869-13.11-10.421-15.015,2.913
		c-3.138,21.066-12.662,15.463-12.326-7.171c0.448-29.47-7.284-30.479-18.377-2.353
		C527.596,152.842,566.702,177.269,590.234,138.274z"/>
	<path d="M138.274,3409.766c-12.55-7.508-14.343-7.508-21.851,0c-10.869,10.869-10.421,13.11,2.913,15.015
		c21.066,3.137,15.463,12.662-7.171,12.326c-29.47-0.448-30.479,7.283-2.353,18.377
		C152.842,3472.404,177.269,3433.298,138.274,3409.766z"/>
	<path d="M3409.766,3861.726c-7.508,12.55-7.508,14.343,0,21.85c10.869,10.869,13.11,10.421,15.015-2.913
		c3.137-21.066,12.662-15.463,12.326,7.171c-0.448,29.47,7.283,30.479,18.377,2.353
		C3472.404,3847.158,3433.298,3822.731,3409.766,3861.726z"/>
	<path d="M3176.582,136.482c6.835-4.146,6.835,18.041,0,18.041C3169.971,154.522,3169.635,140.74,3176.582,136.482z"/>
	<path d="M136.482,823.418c-4.146-6.835,18.041-6.835,18.041,0C154.522,830.029,140.74,830.365,136.482,823.418z"/>
	<path d="M823.418,3863.518c-6.835,4.146-6.835-18.041,0-18.041C830.029,3845.478,830.365,3859.26,823.418,3863.518z"/>
	<path d="M3863.518,3176.582c4.146,6.835-18.041,6.835-18.041,0C3845.478,3169.971,3859.26,3169.635,3863.518,3176.582z"/>
	<path d="M3863.518,823.418c4.146-6.835-18.041-6.835-18.041,0C3845.478,830.029,3859.26,830.365,3863.518,823.418z"/>
	<path d="M823.418,136.482c-6.835-4.146-6.835,18.041,0,18.041C830.029,154.522,830.365,140.74,823.418,136.482z"/>
	<path d="M136.482,3176.582c-4.146,6.835,18.041,6.835,18.041,0C154.522,3169.971,140.74,3169.635,136.482,3176.582z"/>
	<path d="M3176.582,3863.518c6.835,4.146,6.835-18.041,0-18.041C3169.971,3845.478,3169.635,3859.26,3176.582,3863.518z"/>
	<path d="M3792.99,138.499c-17.929-8.18-33.616-38.21-24.54-46.951c5.491-5.267,8.292-4.37,14.679,5.042
		c4.37,6.387,11.429,11.542,15.8,11.542c6.723,0,6.611-1.457-1.009-9.749c-14.791-16.248-0.224-17.144,17.032-1.008
		c17.032,15.912,21.066,31.375,8.068,31.375c-4.37,0-9.188,3.474-10.869,7.732C3808.566,145.782,3808.902,145.67,3792.99,138.499z"
		/>
	<path d="M138.499,207.01c-8.18,17.929-38.21,33.616-46.951,24.54c-5.267-5.491-4.37-8.292,5.042-14.679
		c6.387-4.37,11.542-11.429,11.542-15.8c0-6.723-1.457-6.611-9.749,1.009c-16.248,14.791-17.144,0.224-1.008-17.032
		c15.912-17.032,31.375-21.066,31.375-8.068c0,4.37,3.474,9.188,7.732,10.869C145.782,191.434,145.67,191.098,138.499,207.01z"/>
	<path d="M207.01,3861.501c17.929,8.18,33.616,38.21,24.54,46.95c-5.491,5.267-8.292,4.37-14.679-5.042
		c-4.37-6.387-11.429-11.542-15.8-11.542c-6.723,0-6.611,1.457,1.009,9.749c14.791,16.248,0.224,17.144-17.032,1.009
		c-17.032-15.912-21.066-31.375-8.068-31.375c4.37,0,9.188-3.474,10.869-7.732C191.434,3854.218,191.098,3854.33,207.01,3861.501z"
		/>
	<path d="M3861.501,3792.99c8.18-17.929,38.21-33.616,46.95-24.54c5.267,5.491,4.37,8.292-5.042,14.679
		c-6.387,4.37-11.542,11.429-11.542,15.8c0,6.723,1.457,6.611,9.749-1.009c16.248-14.791,17.144-0.224,1.009,17.032
		c-15.912,17.032-31.375,21.066-31.375,8.068c0-4.37-3.474-9.188-7.732-10.869C3854.218,3808.566,3854.33,3808.902,3861.501,3792.99
		z"/>
	<path d="M3861.501,207.01c8.18,17.929,38.21,33.616,46.95,24.54c5.267-5.491,4.37-8.292-5.042-14.679
		c-6.387-4.37-11.542-11.429-11.542-15.8c0-6.723,1.457-6.611,9.749,1.009c16.248,14.791,17.144,0.224,1.009-17.032
		c-15.912-17.032-31.375-21.066-31.375-8.068c0,4.37-3.474,9.188-7.732,10.869C3854.218,191.434,3854.33,191.098,3861.501,207.01z"
		/>
	<path d="M207.01,138.499c17.929-8.18,33.616-38.21,24.54-46.951c-5.491-5.267-8.292-4.37-14.679,5.042
		c-4.37,6.387-11.429,11.542-15.8,11.542c-6.723,0-6.611-1.457,1.009-9.749c14.791-16.248,0.224-17.144-17.032-1.008
		c-17.032,15.912-21.066,31.375-8.068,31.375c4.37,0,9.188,3.474,10.869,7.732C191.434,145.782,191.098,145.67,207.01,138.499z"/>
	<path d="M138.499,3792.99c-8.18-17.929-38.21-33.616-46.951-24.54c-5.267,5.491-4.37,8.292,5.042,14.679
		c6.387,4.37,11.542,11.429,11.542,15.8c0,6.723-1.457,6.611-9.749-1.009c-16.248-14.791-17.144-0.224-1.008,17.032
		c15.912,17.032,31.375,21.066,31.375,8.068c0-4.37,3.474-9.188,7.732-10.869C145.782,3808.566,145.67,3808.902,138.499,3792.99z"/>
	<path d="M3792.99,3861.501c-17.929,8.18-33.616,38.21-24.54,46.95c5.491,5.267,8.292,4.37,14.679-5.042
		c4.37-6.387,11.429-11.542,15.8-11.542c6.723,0,6.611,1.457-1.009,9.749c-14.791,16.248-0.224,17.144,17.032,1.009
		c17.032-15.912,21.066-31.375,8.068-31.375c-4.37,0-9.188-3.474-10.869-7.732C3808.566,3854.218,3808.902,3854.33,3792.99,3861.501
		z"/>
	<path d="M3631.857,134.353c-17.48-7.956-53.45-47.287-53.45-58.492c0-21.29,98.047,28.35,104.434,52.777
		c3.922,15.127-2.129,12.998-22.299-7.844c-21.29-21.963-50.424-40.9-55.354-35.857c-2.017,2.017,1.009,6.723,6.723,10.645
		C3672.757,136.93,3683.402,157.772,3631.857,134.353z"/>
	<path d="M134.353,368.143c-7.956,17.48-47.287,53.45-58.492,53.45c-21.29,0,28.35-98.047,52.777-104.434
		c15.127-3.922,12.998,2.129-7.844,22.299c-21.963,21.29-40.9,50.424-35.857,55.355c2.017,2.017,6.723-1.009,10.645-6.723
		C136.93,327.243,157.772,316.598,134.353,368.143z"/>
	<path d="M368.143,3865.647c17.48,7.956,53.45,47.287,53.45,58.492c0,21.29-98.047-28.35-104.434-52.777
		c-3.922-15.127,2.129-12.998,22.299,7.844c21.29,21.963,50.424,40.9,55.355,35.857c2.017-2.017-1.009-6.723-6.723-10.645
		C327.243,3863.07,316.598,3842.228,368.143,3865.647z"/>
	<path d="M3865.647,3631.857c7.956-17.48,47.287-53.45,58.492-53.45c21.29,0-28.35,98.047-52.777,104.434
		c-15.127,3.922-12.998-2.129,7.844-22.299c21.963-21.29,40.9-50.424,35.857-55.354c-2.017-2.017-6.723,1.009-10.645,6.723
		C3863.07,3672.757,3842.228,3683.402,3865.647,3631.857z"/>
	<path d="M3865.647,368.143c7.956,17.48,47.287,53.45,58.492,53.45c21.29,0-28.35-98.047-52.777-104.434
		c-15.127-3.922-12.998,2.129,7.844,22.299c21.963,21.29,40.9,50.424,35.857,55.355c-2.017,2.017-6.723-1.009-10.645-6.723
		C3863.07,327.243,3842.228,316.598,3865.647,368.143z"/>
	<path d="M368.143,134.353c17.48-7.956,53.45-47.287,53.45-58.492c0-21.29-98.047,28.35-104.434,52.777
		c-3.922,15.127,2.129,12.998,22.299-7.844c21.29-21.963,50.424-40.9,55.355-35.857c2.017,2.017-1.009,6.723-6.723,10.645
		C327.243,136.93,316.598,157.772,368.143,134.353z"/>
	<path d="M134.353,3631.857c-7.956-17.48-47.287-53.45-58.492-53.45c-21.29,0,28.35,98.047,52.777,104.434
		c15.127,3.922,12.998-2.129-7.844-22.299c-21.963-21.29-40.9-50.424-35.857-55.354c2.017-2.017,6.723,1.009,10.645,6.723
		C136.93,3672.757,157.772,3683.402,134.353,3631.857z"/>
	<path d="M3631.857,3865.647c-17.48,7.956-53.45,47.287-53.45,58.492c0,21.29,98.047-28.35,104.434-52.777
		c3.922-15.127-2.129-12.998-22.299,7.844c-21.29,21.963-50.424,40.9-55.354,35.857c-2.017-2.017,1.009-6.723,6.723-10.645
		C3672.757,3863.07,3683.402,3842.228,3631.857,3865.647z"/>
	<path d="M3744.247,121.915c-1.009-5.042,1.681-8.628,6.387-8.628c4.818,0,8.068,4.37,8.068,10.757
		C3758.702,136.594,3746.712,134.801,3744.247,121.915z"/>
	<path d="M121.915,255.753c-5.042,1.009-8.628-1.681-8.628-6.387c0-4.818,4.37-8.068,10.757-8.068
		C136.594,241.298,134.801,253.288,121.915,255.753z"/>
	<path d="M255.753,3878.085c1.009,5.042-1.681,8.628-6.387,8.628c-4.818,0-8.068-4.37-8.068-10.757
		C241.298,3863.406,253.288,3865.199,255.753,3878.085z"/>
	<path d="M3878.085,3744.247c5.042-1.009,8.628,1.681,8.628,6.387c0,4.818-4.37,8.068-10.757,8.068
		C3863.406,3758.702,3865.199,3746.712,3878.085,3744.247z"/>
	<path d="M3878.085,255.753c5.042,1.009,8.628-1.681,8.628-6.387c0-4.818-4.37-8.068-10.757-8.068
		C3863.406,241.298,3865.199,253.288,3878.085,255.753z"/>
	<path d="M255.753,121.915c1.009-5.042-1.681-8.628-6.387-8.628c-4.818,0-8.068,4.37-8.068,10.757
		C241.298,136.594,253.288,134.801,255.753,121.915z"/>
	<path d="M121.915,3744.247c-5.042-1.009-8.628,1.681-8.628,6.387c0,4.818,4.37,8.068,10.757,8.068
		C136.594,3758.702,134.801,3746.712,121.915,3744.247z"/>
	<path d="M3744.247,3878.085c-1.009,5.042,1.681,8.628,6.387,8.628c4.818,0,8.068-4.37,8.068-10.757
		C3758.702,3863.406,3746.712,3865.199,3744.247,3878.085z"/>
	<path d="M3382.649,125.724c0-9.076,11.093-7.508,14.231,2.017c1.121,3.362-1.681,6.163-6.163,6.163
		S3382.649,130.207,3382.649,125.724z"/>
	<path d="M125.724,617.351c-9.076,0-7.508-11.093,2.017-14.231c3.362-1.121,6.163,1.681,6.163,6.163
		C133.904,613.765,130.207,617.351,125.724,617.351z"/>
	<path d="M617.351,3874.276c0,9.076-11.093,7.508-14.231-2.017c-1.121-3.362,1.681-6.163,6.163-6.163
		C613.765,3866.096,617.351,3869.793,617.351,3874.276z"/>
	<path d="M3874.276,3382.649c9.076,0,7.508,11.093-2.017,14.231c-3.362,1.121-6.163-1.681-6.163-6.163
		S3869.793,3382.649,3874.276,3382.649z"/>
	<path d="M3874.276,617.351c9.076,0,7.508-11.093-2.017-14.231c-3.362-1.121-6.163,1.681-6.163,6.163
		C3866.096,613.765,3869.793,617.351,3874.276,617.351z"/>
	<path d="M617.351,125.724c0-9.076-11.093-7.508-14.231,2.017c-1.121,3.362,1.681,6.163,6.163,6.163
		C613.765,133.904,617.351,130.207,617.351,125.724z"/>
	<path d="M125.724,3382.649c-9.076,0-7.508,11.093,2.017,14.231c3.362,1.121,6.163-1.681,6.163-6.163
		S130.207,3382.649,125.724,3382.649z"/>
	<path d="M3382.649,3874.276c0,9.076,11.093,7.508,14.231-2.017c1.121-3.362-1.681-6.163-6.163-6.163
		S3382.649,3869.793,3382.649,3874.276z"/>
	<path d="M2871.795,111.942c-27.117-12.55-55.803-36.53-55.803-46.614c0-6.163,75.412,1.233,102.193,9.973
		c30.142,9.861,52.441,21.738,52.441,28.013c0,2.801-8.74,0.672-19.273-4.706c-26.781-13.671-57.26-21.514-60.845-15.688
		c-1.569,2.577,0.112,4.706,3.81,4.706c14.231,0,71.827,30.815,68.241,36.53C2956.508,133.792,2903.507,126.621,2871.795,111.942z"
		/>
	<path d="M111.942,1128.204c-12.55,27.117-36.53,55.803-46.614,55.803c-6.163,0,1.233-75.412,9.973-102.193
		c9.861-30.142,21.738-52.441,28.013-52.441c2.801,0,0.672,8.74-4.706,19.273c-13.671,26.781-21.514,57.26-15.688,60.845
		c2.577,1.569,4.706-0.112,4.706-3.81c0-14.231,30.815-71.827,36.53-68.241C133.792,1043.492,126.621,1096.493,111.942,1128.204z"/>
	<path d="M1128.204,3888.058c27.117,12.55,55.803,36.53,55.803,46.615c0,6.163-75.412-1.233-102.193-9.973
		c-30.142-9.861-52.441-21.738-52.441-28.013c0-2.801,8.74-0.672,19.273,4.706c26.781,13.671,57.26,21.514,60.845,15.688
		c1.569-2.577-0.112-4.706-3.81-4.706c-14.231,0-71.827-30.815-68.241-36.53C1043.492,3866.208,1096.493,3873.379,1128.204,3888.058
		z"/>
	<path d="M3888.058,2871.795c12.55-27.117,36.53-55.803,46.615-55.803c6.163,0-1.233,75.412-9.973,102.193
		c-9.861,30.142-21.738,52.441-28.013,52.441c-2.801,0-0.672-8.74,4.706-19.273c13.671-26.781,21.514-57.26,15.688-60.845
		c-2.577-1.569-4.706,0.112-4.706,3.81c0,14.231-30.815,71.827-36.53,68.241C3866.208,2956.508,3873.379,2903.507,3888.058,2871.795
		z"/>
	<path d="M3888.058,1128.204c12.55,27.117,36.53,55.803,46.615,55.803c6.163,0-1.233-75.412-9.973-102.193
		c-9.861-30.142-21.738-52.441-28.013-52.441c-2.801,0-0.672,8.74,4.706,19.273c13.671,26.781,21.514,57.26,15.688,60.845
		c-2.577,1.569-4.706-0.112-4.706-3.81c0-14.231-30.815-71.827-36.53-68.241C3866.208,1043.492,3873.379,1096.493,3888.058,1128.204
		z"/>
	<path d="M1128.204,111.942c27.117-12.55,55.803-36.53,55.803-46.614c0-6.163-75.412,1.233-102.193,9.973
		c-30.142,9.861-52.441,21.738-52.441,28.013c0,2.801,8.74,0.672,19.273-4.706c26.781-13.671,57.26-21.514,60.845-15.688
		c1.569,2.577-0.112,4.706-3.81,4.706c-14.231,0-71.827,30.815-68.241,36.53C1043.492,133.792,1096.493,126.621,1128.204,111.942z"
		/>
	<path d="M111.942,2871.795c-12.55-27.117-36.53-55.803-46.614-55.803c-6.163,0,1.233,75.412,9.973,102.193
		c9.861,30.142,21.738,52.441,28.013,52.441c2.801,0,0.672-8.74-4.706-19.273c-13.671-26.781-21.514-57.26-15.688-60.845
		c2.577-1.569,4.706,0.112,4.706,3.81c0,14.231,30.815,71.827,36.53,68.241C133.792,2956.508,126.621,2903.507,111.942,2871.795z"/>
	<path d="M2871.795,3888.058c-27.117,12.55-55.803,36.53-55.803,46.615c0,6.163,75.412-1.233,102.193-9.973
		c30.142-9.861,52.441-21.738,52.441-28.013c0-2.801-8.74-0.672-19.273,4.706c-26.781,13.671-57.26,21.514-60.845,15.688
		c-1.569-2.577,0.112-4.706,3.81-4.706c14.231,0,71.827-30.815,68.241-36.53C2956.508,3866.208,2903.507,3873.379,2871.795,3888.058
		z"/>
	<path d="M3697.969,103.986c4.706-4.706,4.706-7.62,0.224-12.102c-9.524-9.525,11.094-34.849,27.341-33.616
		c18.377,1.457,16.92,9.861-3.362,20.058c-16.584,8.292-16.808,8.74-4.37,8.964c7.172,0.112,15.8-2.353,18.937-5.603
		c13.67-13.671,26.893,2.353,15.127,18.377C3743.239,111.83,3670.964,130.991,3697.969,103.986z"/>
	<path d="M103.986,302.031c-4.706-4.706-7.62-4.706-12.102-0.224c-9.525,9.525-34.849-11.093-33.616-27.341
		c1.457-18.377,9.861-16.92,20.058,3.362c8.292,16.584,8.74,16.808,8.964,4.37c0.112-7.171-2.353-15.8-5.603-18.937
		c-13.671-13.671,2.353-26.893,18.377-15.127C111.83,256.761,130.991,329.036,103.986,302.031z"/>
	<path d="M302.031,3896.014c-4.706,4.706-4.706,7.62-0.224,12.102c9.525,9.525-11.093,34.849-27.341,33.616
		c-18.377-1.457-16.92-9.861,3.362-20.058c16.584-8.292,16.808-8.74,4.37-8.964c-7.171-0.112-15.8,2.353-18.937,5.603
		c-13.671,13.671-26.893-2.353-15.127-18.377C256.761,3888.17,329.036,3869.009,302.031,3896.014z"/>
	<path d="M3896.014,3697.969c4.706,4.706,7.62,4.706,12.102,0.224c9.525-9.524,34.849,11.094,33.616,27.341
		c-1.457,18.377-9.861,16.92-20.058-3.362c-8.292-16.584-8.74-16.808-8.964-4.37c-0.112,7.172,2.353,15.8,5.603,18.937
		c13.671,13.67-2.353,26.893-18.377,15.127C3888.17,3743.239,3869.009,3670.964,3896.014,3697.969z"/>
	<path d="M3896.014,302.031c4.706-4.706,7.62-4.706,12.102-0.224c9.525,9.525,34.849-11.093,33.616-27.341
		c-1.457-18.377-9.861-16.92-20.058,3.362c-8.292,16.584-8.74,16.808-8.964,4.37c-0.112-7.171,2.353-15.8,5.603-18.937
		c13.671-13.671-2.353-26.893-18.377-15.127C3888.17,256.761,3869.009,329.036,3896.014,302.031z"/>
	<path d="M302.031,103.986c-4.706-4.706-4.706-7.62-0.224-12.102c9.525-9.525-11.093-34.849-27.341-33.616
		c-18.377,1.457-16.92,9.861,3.362,20.058c16.584,8.292,16.808,8.74,4.37,8.964c-7.171,0.112-15.8-2.353-18.937-5.603
		c-13.671-13.671-26.893,2.353-15.127,18.377C256.761,111.83,329.036,130.991,302.031,103.986z"/>
	<path d="M103.986,3697.969c-4.706,4.706-7.62,4.706-12.102,0.224c-9.525-9.524-34.849,11.094-33.616,27.341
		c1.457,18.377,9.861,16.92,20.058-3.362c8.292-16.584,8.74-16.808,8.964-4.37c0.112,7.172-2.353,15.8-5.603,18.937
		c-13.671,13.67,2.353,26.893,18.377,15.127C111.83,3743.239,130.991,3670.964,103.986,3697.969z"/>
	<path d="M3697.969,3896.014c4.706,4.706,4.706,7.62,0.224,12.102c-9.524,9.525,11.094,34.849,27.341,33.616
		c18.377-1.457,16.92-9.861-3.362-20.058c-16.584-8.292-16.808-8.74-4.37-8.964c7.172-0.112,15.8,2.353,18.937,5.603
		c13.67,13.671,26.893-2.353,15.127-18.377C3743.239,3888.17,3670.964,3869.009,3697.969,3896.014z"/>
	<path d="M3238.66,100.736c-3.698-4.37-9.413-7.956-12.774-7.956c-9.637,0-32.72-26.893-36.642-42.468
		c-4.37-17.817,0.673-18.041,34.177-1.008c43.253,21.851,76.757,64.095,50.985,64.095c-2.802,0-5.155-3.025-5.155-6.723
		c0-8.74-34.849-42.58-39.331-38.098c-1.905,1.905,5.042,12.662,15.351,24.092c10.309,11.429,18.713,21.963,18.713,23.531
		C3264.208,120.458,3245.943,109.477,3238.66,100.736z"/>
	<path d="M100.736,761.34c-4.37,3.698-7.956,9.412-7.956,12.774c0,9.637-26.893,32.72-42.468,36.642
		c-17.817,4.37-18.041-0.672-1.008-34.176c21.851-43.253,64.095-76.757,64.095-50.984c0,2.801-3.025,5.155-6.723,5.155
		c-8.74,0-42.58,34.849-38.098,39.331c1.905,1.905,12.662-5.042,24.092-15.351s21.963-18.713,23.531-18.713
		C120.458,735.792,109.477,754.057,100.736,761.34z"/>
	<path d="M761.34,3899.264c3.698,4.37,9.412,7.956,12.774,7.956c9.637,0,32.72,26.893,36.642,42.468
		c4.37,17.817-0.672,18.041-34.176,1.009c-43.253-21.851-76.757-64.095-50.984-64.095c2.801,0,5.155,3.025,5.155,6.723
		c0,8.74,34.849,42.581,39.331,38.098c1.905-1.905-5.042-12.662-15.351-24.092c-10.309-11.43-18.713-21.963-18.713-23.531
		C735.792,3879.542,754.057,3890.523,761.34,3899.264z"/>
	<path d="M3899.264,3238.66c4.37-3.698,7.956-9.413,7.956-12.774c0-9.637,26.893-32.72,42.468-36.642
		c17.817-4.37,18.041,0.673,1.009,34.177c-21.851,43.253-64.095,76.757-64.095,50.985c0-2.802,3.025-5.155,6.723-5.155
		c8.74,0,42.581-34.849,38.098-39.331c-1.905-1.905-12.662,5.042-24.092,15.351c-11.43,10.309-21.963,18.713-23.531,18.713
		C3879.542,3264.208,3890.523,3245.943,3899.264,3238.66z"/>
	<path d="M3899.264,761.34c4.37,3.698,7.956,9.412,7.956,12.774c0,9.637,26.893,32.72,42.468,36.642
		c17.817,4.37,18.041-0.672,1.009-34.176c-21.851-43.253-64.095-76.757-64.095-50.984c0,2.801,3.025,5.155,6.723,5.155
		c8.74,0,42.581,34.849,38.098,39.331c-1.905,1.905-12.662-5.042-24.092-15.351c-11.43-10.309-21.963-18.713-23.531-18.713
		C3879.542,735.792,3890.523,754.057,3899.264,761.34z"/>
	<path d="M761.34,100.736c3.698-4.37,9.412-7.956,12.774-7.956c9.637,0,32.72-26.893,36.642-42.468
		c4.37-17.817-0.672-18.041-34.176-1.008c-43.253,21.851-76.757,64.095-50.984,64.095c2.801,0,5.155-3.025,5.155-6.723
		c0-8.74,34.849-42.58,39.331-38.098c1.905,1.905-5.042,12.662-15.351,24.092s-18.713,21.963-18.713,23.531
		C735.792,120.458,754.057,109.477,761.34,100.736z"/>
	<path d="M100.736,3238.66c-4.37-3.698-7.956-9.413-7.956-12.774c0-9.637-26.893-32.72-42.468-36.642
		c-17.817-4.37-18.041,0.673-1.008,34.177c21.851,43.253,64.095,76.757,64.095,50.985c0-2.802-3.025-5.155-6.723-5.155
		c-8.74,0-42.58-34.849-38.098-39.331c1.905-1.905,12.662,5.042,24.092,15.351c11.429,10.309,21.963,18.713,23.531,18.713
		C120.458,3264.208,109.477,3245.943,100.736,3238.66z"/>
	<path d="M3238.66,3899.264c-3.698,4.37-9.413,7.956-12.774,7.956c-9.637,0-32.72,26.893-36.642,42.468
		c-4.37,17.817,0.673,18.041,34.177,1.009c43.253-21.851,76.757-64.095,50.985-64.095c-2.802,0-5.155,3.025-5.155,6.723
		c0,8.74-34.849,42.581-39.331,38.098c-1.905-1.905,5.042-12.662,15.351-24.092c10.309-11.43,18.713-21.963,18.713-23.531
		C3264.208,3879.542,3245.943,3890.523,3238.66,3899.264z"/>
	<path d="M3466.354,99.952c4.93-4.93,14.791,3.025,11.093,8.964c-2.129,3.474-5.042,3.474-8.74-0.224
		C3465.681,105.667,3464.673,101.745,3466.354,99.952z"/>
	<path d="M99.952,533.646c-4.93-4.93,3.025-14.791,8.964-11.093c3.474,2.129,3.474,5.042-0.224,8.74
		C105.667,534.319,101.745,535.327,99.952,533.646z"/>
	<path d="M533.646,3900.048c-4.93,4.93-14.791-3.025-11.093-8.964c2.129-3.474,5.042-3.474,8.74,0.224
		C534.319,3894.333,535.327,3898.255,533.646,3900.048z"/>
	<path d="M3900.048,3466.354c4.93,4.93-3.025,14.791-8.964,11.093c-3.474-2.129-3.474-5.042,0.224-8.74
		C3894.333,3465.681,3898.255,3464.673,3900.048,3466.354z"/>
	<path d="M3900.048,533.646c4.93-4.93-3.025-14.791-8.964-11.093c-3.474,2.129-3.474,5.042,0.224,8.74
		C3894.333,534.319,3898.255,535.327,3900.048,533.646z"/>
	<path d="M533.646,99.952c-4.93-4.93-14.791,3.025-11.093,8.964c2.129,3.474,5.042,3.474,8.74-0.224
		C534.319,105.667,535.327,101.745,533.646,99.952z"/>
	<path d="M99.952,3466.354c-4.93,4.93,3.025,14.791,8.964,11.093c3.474-2.129,3.474-5.042-0.224-8.74
		C105.667,3465.681,101.745,3464.673,99.952,3466.354z"/>
	<path d="M3466.354,3900.048c4.93,4.93,14.791-3.025,11.093-8.964c-2.129-3.474-5.042-3.474-8.74,0.224
		C3465.681,3894.333,3464.673,3898.255,3466.354,3900.048z"/>
	<path d="M3379.96,84.825c22.971-4.594,29.806-4.37,34.289,1.121C3445.063,122.923,3290.429,102.641,3379.96,84.825z"/>
	<path d="M84.825,620.04c-4.594-22.971-4.37-29.806,1.121-34.289C122.923,554.937,102.641,709.571,84.825,620.04z"/>
	<path d="M620.04,3915.175c-22.971,4.594-29.806,4.37-34.289-1.121C554.937,3877.077,709.571,3897.359,620.04,3915.175z"/>
	<path d="M3915.175,3379.96c4.594,22.971,4.37,29.806-1.121,34.289C3877.077,3445.063,3897.359,3290.429,3915.175,3379.96z"/>
	<path d="M3915.175,620.04c4.594-22.971,4.37-29.806-1.121-34.289C3877.077,554.937,3897.359,709.571,3915.175,620.04z"/>
	<path d="M620.04,84.825c-22.971-4.594-29.806-4.37-34.289,1.121C554.937,122.923,709.571,102.641,620.04,84.825z"/>
	<path d="M84.825,3379.96c-4.594,22.971-4.37,29.806,1.121,34.289C122.923,3445.063,102.641,3290.429,84.825,3379.96z"/>
	<path d="M3379.96,3915.175c22.971,4.594,29.806,4.37,34.289-1.121C3445.063,3877.077,3290.429,3897.359,3379.96,3915.175z"/>
	<path d="M3028.671,84.489c-24.764-8.292-61.517-37.538-54.234-43.253c12.886-10.085,113.398,2.801,131.775,16.92
		c23.419,17.817,24.428,26.445,2.129,16.92c-20.73-8.852-45.158-14.679-69.585-21.178c-13.783-3.698-20.282,5.267,10.309,13.11
		c38.322,9.861,46.95,13.334,49.08,19.609C3101.17,95.582,3058.253,94.349,3028.671,84.489z"/>
	<path d="M84.489,971.329c-8.292,24.764-37.538,61.517-43.253,54.234c-10.085-12.886,2.801-113.399,16.92-131.776
		c17.817-23.419,26.445-24.428,16.92-2.129c-8.852,20.73-14.679,45.158-21.178,69.586c-3.698,13.783,5.267,20.282,13.11-10.309
		c9.861-38.322,13.334-46.95,19.609-49.08C95.582,898.83,94.349,941.747,84.489,971.329z"/>
	<path d="M971.329,3915.511c24.764,8.292,61.517,37.538,54.234,43.253c-12.886,10.085-113.399-2.801-131.776-16.92
		c-23.419-17.816-24.428-26.445-2.129-16.92c20.73,8.852,45.158,14.679,69.586,21.178c13.783,3.698,20.282-5.267-10.309-13.11
		c-38.322-9.861-46.95-13.334-49.08-19.609C898.83,3904.418,941.747,3905.651,971.329,3915.511z"/>
	<path d="M3915.511,3028.671c8.292-24.764,37.538-61.517,43.253-54.234c10.085,12.886-2.801,113.398-16.92,131.775
		c-17.816,23.419-26.445,24.428-16.92,2.129c8.852-20.73,14.679-45.158,21.178-69.585c3.698-13.783-5.267-20.282-13.11,10.309
		c-9.861,38.322-13.334,46.95-19.609,49.08C3904.418,3101.17,3905.651,3058.253,3915.511,3028.671z"/>
	<path d="M3915.511,971.329c8.292,24.764,37.538,61.517,43.253,54.234c10.085-12.886-2.801-113.399-16.92-131.776
		c-17.816-23.419-26.445-24.428-16.92-2.129c8.852,20.73,14.679,45.158,21.178,69.586c3.698,13.783-5.267,20.282-13.11-10.309
		c-9.861-38.322-13.334-46.95-19.609-49.08C3904.418,898.83,3905.651,941.747,3915.511,971.329z"/>
	<path d="M971.329,84.489c24.764-8.292,61.517-37.538,54.234-43.253c-12.886-10.085-113.399,2.801-131.776,16.92
		c-23.419,17.817-24.428,26.445-2.129,16.92c20.73-8.852,45.158-14.679,69.586-21.178c13.783-3.698,20.282,5.267-10.309,13.11
		c-38.322,9.861-46.95,13.334-49.08,19.609C898.83,95.582,941.747,94.349,971.329,84.489z"/>
	<path d="M84.489,3028.671c-8.292-24.764-37.538-61.517-43.253-54.234c-10.085,12.886,2.801,113.398,16.92,131.775
		c17.817,23.419,26.445,24.428,16.92,2.129c-8.852-20.73-14.679-45.158-21.178-69.585c-3.698-13.783,5.267-20.282,13.11,10.309
		c9.861,38.322,13.334,46.95,19.609,49.08C95.582,3101.17,94.349,3058.253,84.489,3028.671z"/>
	<path d="M3028.671,3915.511c-24.764,8.292-61.517,37.538-54.234,43.253c12.886,10.085,113.398-2.801,131.775-16.92
		c23.419-17.816,24.428-26.445,2.129-16.92c-20.73,8.852-45.158,14.679-69.585,21.178c-13.783,3.698-20.282-5.267,10.309-13.11
		c38.322-9.861,46.95-13.334,49.08-19.609C3101.17,3904.418,3058.253,3905.651,3028.671,3915.511z"/>
	<path d="M3452.235,74.628c0-2.801,5.827-5.827,12.886-6.611c48.968-5.491,40.788-17.256,5.042-12.998
		c-26.781,3.138-36.081-4.594-14.007-11.878c30.255-9.973,70.034-5.715,59.949,6.387c-12.662,15.239,15.463,14.007-5.827,26.109
		C3496.944,83.256,3452.235,82.472,3452.235,74.628z"/>
	<path d="M74.628,547.765c-2.801,0-5.827-5.827-6.611-12.886c-5.491-48.967-17.256-40.787-12.998-5.042
		c3.138,26.781-4.594,36.081-11.878,14.007c-9.973-30.255-5.715-70.034,6.387-59.949c15.239,12.662,14.007-15.464,26.109,5.827
		C83.256,503.056,82.472,547.765,74.628,547.765z"/>
	<path d="M547.765,3925.372c0,2.802-5.827,5.827-12.886,6.611c-48.967,5.49-40.787,17.256-5.042,12.998
		c26.781-3.137,36.081,4.594,14.007,11.878c-30.255,9.973-70.034,5.715-59.949-6.387c12.662-15.239-15.464-14.007,5.827-26.109
		C503.056,3916.744,547.765,3917.528,547.765,3925.372z"/>
	<path d="M3925.372,3452.235c2.802,0,5.827,5.827,6.611,12.886c5.49,48.968,17.256,40.788,12.998,5.042
		c-3.137-26.781,4.594-36.081,11.878-14.007c9.973,30.255,5.715,70.034-6.387,59.949c-15.239-12.662-14.007,15.463-26.109-5.827
		C3916.744,3496.944,3917.528,3452.235,3925.372,3452.235z"/>
	<path d="M3925.372,547.765c2.802,0,5.827-5.827,6.611-12.886c5.49-48.967,17.256-40.787,12.998-5.042
		c-3.137,26.781,4.594,36.081,11.878,14.007c9.973-30.255,5.715-70.034-6.387-59.949c-15.239,12.662-14.007-15.464-26.109,5.827
		C3916.744,503.056,3917.528,547.765,3925.372,547.765z"/>
	<path d="M547.765,74.628c0-2.801-5.827-5.827-12.886-6.611c-48.967-5.491-40.787-17.256-5.042-12.998
		c26.781,3.138,36.081-4.594,14.007-11.878c-30.255-9.973-70.034-5.715-59.949,6.387c12.662,15.239-15.464,14.007,5.827,26.109
		C503.056,83.256,547.765,82.472,547.765,74.628z"/>
	<path d="M74.628,3452.235c-2.801,0-5.827,5.827-6.611,12.886c-5.491,48.968-17.256,40.788-12.998,5.042
		c3.138-26.781-4.594-36.081-11.878-14.007c-9.973,30.255-5.715,70.034,6.387,59.949c15.239-12.662,14.007,15.463,26.109-5.827
		C83.256,3496.944,82.472,3452.235,74.628,3452.235z"/>
	<path d="M3452.235,3925.372c0,2.802,5.827,5.827,12.886,6.611c48.968,5.49,40.788,17.256,5.042,12.998
		c-26.781-3.137-36.081,4.594-14.007,11.878c30.255,9.973,70.034,5.715,59.949-6.387c-12.662-15.239,15.463-14.007-5.827-26.109
		C3496.944,3916.744,3452.235,3917.528,3452.235,3925.372z"/>
	<path d="M3426.686,62.526c11.318,2.241,17.816,16.472,4.594,13.895C3419.963,74.18,3413.464,60.061,3426.686,62.526z"/>
	<path d="M62.526,573.314c2.241-11.318,16.472-17.816,13.895-4.594C74.18,580.037,60.061,586.536,62.526,573.314z"/>
	<path d="M573.314,3937.474c-11.318-2.241-17.816-16.472-4.594-13.895C580.037,3925.82,586.536,3939.939,573.314,3937.474z"/>
	<path d="M3937.474,3426.686c-2.241,11.318-16.472,17.816-13.895,4.594C3925.82,3419.963,3939.939,3413.464,3937.474,3426.686z"/>
	<path d="M3937.474,573.314c-2.241-11.318-16.472-17.816-13.895-4.594C3925.82,580.037,3939.939,586.536,3937.474,573.314z"/>
	<path d="M573.314,62.526c-11.318,2.241-17.816,16.472-4.594,13.895C580.037,74.18,586.536,60.061,573.314,62.526z"/>
	<path d="M62.526,3426.686c2.241,11.318,16.472,17.816,13.895,4.594C74.18,3419.963,60.061,3413.464,62.526,3426.686z"/>
	<path d="M3426.686,3937.474c11.318-2.241,17.816-16.472,4.594-13.895C3419.963,3925.82,3413.464,3939.939,3426.686,3937.474z"/>
	<path d="M3341.413,72.499c0-6.387,43.029-22.411,54.346-20.282c16.136,3.138,13.895,14.007-3.81,19.049
		C3369.539,77.877,3341.413,78.438,3341.413,72.499z"/>
	<path d="M72.499,658.587c-6.387,0-22.411-43.029-20.282-54.346c3.138-16.136,14.007-13.895,19.049,3.81
		C77.877,630.461,78.438,658.587,72.499,658.587z"/>
	<path d="M658.587,3927.501c0,6.387-43.029,22.411-54.346,20.282c-16.136-3.138-13.895-14.007,3.81-19.049
		C630.461,3922.123,658.587,3921.562,658.587,3927.501z"/>
	<path d="M3927.501,3341.413c6.387,0,22.411,43.029,20.282,54.346c-3.138,16.136-14.007,13.895-19.049-3.81
		C3922.123,3369.539,3921.562,3341.413,3927.501,3341.413z"/>
	<path d="M3927.501,658.587c6.387,0,22.411-43.029,20.282-54.346c-3.138-16.136-14.007-13.895-19.049,3.81
		C3922.123,630.461,3921.562,658.587,3927.501,658.587z"/>
	<path d="M658.587,72.499c0-6.387-43.029-22.411-54.346-20.282c-16.136,3.138-13.895,14.007,3.81,19.049
		C630.461,77.877,658.587,78.438,658.587,72.499z"/>
	<path d="M72.499,3341.413c-6.387,0-22.411,43.029-20.282,54.346c3.138,16.136,14.007,13.895,19.049-3.81
		C77.877,3369.539,78.438,3341.413,72.499,3341.413z"/>
	<path d="M3341.413,3927.501c0,6.387,43.029,22.411,54.346,20.282c16.136-3.138,13.895-14.007-3.81-19.049
		C3369.539,3922.123,3341.413,3921.562,3341.413,3927.501z"/>
	<path d="M3795.008,67.12c-8.628-5.491-8.852-5.154,15.351-17.256c18.265-9.076,5.266-9.188-18.265-0.224
		c-13.67,5.267-6.611-9.749,8.74-18.377c28.91-16.248,59.949,11.654,34.625,31.151C3821.9,72.723,3806.661,74.516,3795.008,67.12z"
		/>
	<path d="M67.12,204.992c-5.491,8.628-5.154,8.852-17.256-15.351c-9.076-18.265-9.188-5.266-0.224,18.265
		c5.267,13.671-9.749,6.611-18.377-8.74c-16.248-28.91,11.654-59.949,31.151-34.625C72.723,178.1,74.516,193.339,67.12,204.992z"/>
	<path d="M204.992,3932.88c8.628,5.491,8.852,5.155-15.351,17.256c-18.265,9.076-5.266,9.188,18.265,0.224
		c13.671-5.267,6.611,9.749-8.74,18.377c-28.91,16.248-59.949-11.654-34.625-31.151
		C178.1,3927.277,193.339,3925.484,204.992,3932.88z"/>
	<path d="M3932.88,3795.008c5.491-8.628,5.155-8.852,17.256,15.351c9.076,18.265,9.188,5.266,0.224-18.265
		c-5.267-13.67,9.749-6.611,18.377,8.74c16.248,28.91-11.654,59.949-31.151,34.625
		C3927.277,3821.9,3925.484,3806.661,3932.88,3795.008z"/>
	<path d="M3932.88,204.992c5.491,8.628,5.155,8.852,17.256-15.351c9.076-18.265,9.188-5.266,0.224,18.265
		c-5.267,13.671,9.749,6.611,18.377-8.74c16.248-28.91-11.654-59.949-31.151-34.625
		C3927.277,178.1,3925.484,193.339,3932.88,204.992z"/>
	<path d="M204.992,67.12c8.628-5.491,8.852-5.154-15.351-17.256c-18.265-9.076-5.266-9.188,18.265-0.224
		c13.671,5.267,6.611-9.749-8.74-18.377c-28.91-16.248-59.949,11.654-34.625,31.151C178.1,72.723,193.339,74.516,204.992,67.12z"/>
	<path d="M67.12,3795.008c-5.491-8.628-5.154-8.852-17.256,15.351c-9.076,18.265-9.188,5.266-0.224-18.265
		c5.267-13.67-9.749-6.611-18.377,8.74c-16.248,28.91,11.654,59.949,31.151,34.625C72.723,3821.9,74.516,3806.661,67.12,3795.008z"
		/>
	<path d="M3795.008,3932.88c-8.628,5.491-8.852,5.155,15.351,17.256c18.265,9.076,5.266,9.188-18.265,0.224
		c-13.67-5.267-6.611,9.749,8.74,18.377c28.91,16.248,59.949-11.654,34.625-31.151
		C3821.9,3927.277,3806.661,3925.484,3795.008,3932.88z"/>
	<path d="M3758.702,64.319c0-4.258,3.362-7.732,7.396-7.732c8.628,0,14.455,7.396,9.636,12.214
		C3769.571,74.964,3758.702,72.163,3758.702,64.319z"/>
	<path d="M64.319,241.298c-4.258,0-7.732-3.362-7.732-7.396c0-8.628,7.396-14.455,12.214-9.637
		C74.964,230.429,72.163,241.298,64.319,241.298z"/>
	<path d="M241.298,3935.681c0,4.258-3.362,7.732-7.396,7.732c-8.628,0-14.455-7.396-9.637-12.214
		C230.429,3925.036,241.298,3927.837,241.298,3935.681z"/>
	<path d="M3935.681,3758.702c4.258,0,7.732,3.362,7.732,7.396c0,8.628-7.396,14.455-12.214,9.636
		C3925.036,3769.571,3927.837,3758.702,3935.681,3758.702z"/>
	<path d="M3935.681,241.298c4.258,0,7.732-3.362,7.732-7.396c0-8.628-7.396-14.455-12.214-9.637
		C3925.036,230.429,3927.837,241.298,3935.681,241.298z"/>
	<path d="M241.298,64.319c0-4.258-3.362-7.732-7.396-7.732c-8.628,0-14.455,7.396-9.637,12.214
		C230.429,74.964,241.298,72.163,241.298,64.319z"/>
	<path d="M64.319,3758.702c-4.258,0-7.732,3.362-7.732,7.396c0,8.628,7.396,14.455,12.214,9.636
		C74.964,3769.571,72.163,3758.702,64.319,3758.702z"/>
	<path d="M3758.702,3935.681c0,4.258,3.362,7.732,7.396,7.732c8.628,0,14.455-7.396,9.636-12.214
		C3769.571,3925.036,3758.702,3927.837,3758.702,3935.681z"/>
	<path d="M3758.254,18.937c9.076-9.076,21.626,11.654,14.791,24.316c-5.042,9.413-5.715,9.188-12.886-4.37
		C3754.78,28.574,3754.22,22.971,3758.254,18.937z"/>
	<path d="M18.937,241.746c-9.076-9.076,11.654-21.626,24.316-14.791c9.413,5.042,9.188,5.715-4.37,12.886
		C28.574,245.22,22.971,245.78,18.937,241.746z"/>
	<path d="M241.746,3981.063c-9.076,9.076-21.626-11.654-14.791-24.316c5.042-9.413,5.715-9.188,12.886,4.37
		C245.22,3971.426,245.78,3977.029,241.746,3981.063z"/>
	<path d="M3981.063,3758.254c9.076,9.076-11.654,21.626-24.316,14.791c-9.413-5.042-9.188-5.715,4.37-12.886
		C3971.426,3754.78,3977.029,3754.22,3981.063,3758.254z"/>
	<path d="M3981.063,241.746c9.076-9.076-11.654-21.626-24.316-14.791c-9.413,5.042-9.188,5.715,4.37,12.886
		C3971.426,245.22,3977.029,245.78,3981.063,241.746z"/>
	<path d="M241.746,18.937c-9.076-9.076-21.626,11.654-14.791,24.316c5.042,9.413,5.715,9.188,12.886-4.37
		C245.22,28.574,245.78,22.971,241.746,18.937z"/>
	<path d="M18.937,3758.254c-9.076,9.076,11.654,21.626,24.316,14.791c9.413-5.042,9.188-5.715-4.37-12.886
		C28.574,3754.78,22.971,3754.22,18.937,3758.254z"/>
	<path d="M3758.254,3981.063c9.076,9.076,21.626-11.654,14.791-24.316c-5.042-9.413-5.715-9.188-12.886,4.37
		C3754.78,3971.426,3754.22,3977.029,3758.254,3981.063z"/>
	<path d="M3718.139,32.72c-15.24-33.504,7.508-4.818,20.394-20.394c6.835-8.292,20.17-9.637,20.17-2.017
		c0,2.801-2.017,5.154-4.594,5.154c-6.499,0-10.869,20.058-5.155,23.531c8.516,5.267,0,11.205-12.774,8.74
		C3729.456,46.39,3721.276,39.667,3718.139,32.72z"/>
	<path d="M32.72,281.861c-33.504,15.239-4.818-7.508-20.394-20.394c-8.292-6.835-9.637-20.17-2.017-20.17
		c2.801,0,5.154,2.017,5.154,4.594c0,6.499,20.058,10.869,23.531,5.154c5.267-8.516,11.205,0,8.74,12.774
		C46.39,270.544,39.667,278.724,32.72,281.861z"/>
	<path d="M281.861,3967.28c15.239,33.504-7.508,4.818-20.394,20.394c-6.835,8.292-20.17,9.637-20.17,2.017
		c0-2.802,2.017-5.155,4.594-5.155c6.499,0,10.869-20.058,5.154-23.531c-8.516-5.267,0-11.206,12.774-8.74
		C270.544,3953.61,278.724,3960.333,281.861,3967.28z"/>
	<path d="M3967.28,3718.139c33.504-15.24,4.818,7.508,20.394,20.394c8.292,6.835,9.637,20.17,2.017,20.17
		c-2.802,0-5.155-2.017-5.155-4.594c0-6.499-20.058-10.869-23.531-5.155c-5.267,8.516-11.206,0-8.74-12.774
		C3953.61,3729.456,3960.333,3721.276,3967.28,3718.139z"/>
	<path d="M3967.28,281.861c33.504,15.239,4.818-7.508,20.394-20.394c8.292-6.835,9.637-20.17,2.017-20.17
		c-2.802,0-5.155,2.017-5.155,4.594c0,6.499-20.058,10.869-23.531,5.154c-5.267-8.516-11.206,0-8.74,12.774
		C3953.61,270.544,3960.333,278.724,3967.28,281.861z"/>
	<path d="M281.861,32.72c15.239-33.504-7.508-4.818-20.394-20.394c-6.835-8.292-20.17-9.637-20.17-2.017
		c0,2.801,2.017,5.154,4.594,5.154c6.499,0,10.869,20.058,5.154,23.531c-8.516,5.267,0,11.205,12.774,8.74
		C270.544,46.39,278.724,39.667,281.861,32.72z"/>
	<path d="M32.72,3718.139c-33.504-15.24-4.818,7.508-20.394,20.394c-8.292,6.835-9.637,20.17-2.017,20.17
		c2.801,0,5.154-2.017,5.154-4.594c0-6.499,20.058-10.869,23.531-5.155c5.267,8.516,11.205,0,8.74-12.774
		C46.39,3729.456,39.667,3721.276,32.72,3718.139z"/>
	<path d="M3718.139,3967.28c-15.24,33.504,7.508,4.818,20.394,20.394c6.835,8.292,20.17,9.637,20.17,2.017
		c0-2.802-2.017-5.155-4.594-5.155c-6.499,0-10.869-20.058-5.155-23.531c8.516-5.267,0-11.206-12.774-8.74
		C3729.456,3953.61,3721.276,3960.333,3718.139,3967.28z"/>
	<path d="M3704.692,35.969c7.956,0,10.197,6.051,4.482,11.878C3701.667,55.355,3688.444,35.969,3704.692,35.969z"/>
	<path d="M35.969,295.308c0-7.956,6.051-10.197,11.878-4.482C55.355,298.333,35.969,311.556,35.969,295.308z"/>
	<path d="M295.308,3964.031c-7.956,0-10.197-6.051-4.482-11.878C298.333,3944.645,311.556,3964.031,295.308,3964.031z"/>
	<path d="M3964.031,3704.692c0,7.956-6.051,10.197-11.878,4.482C3944.645,3701.667,3964.031,3688.444,3964.031,3704.692z"/>
	<path d="M3964.031,295.308c0-7.956-6.051-10.197-11.878-4.482C3944.645,298.333,3964.031,311.556,3964.031,295.308z"/>
	<path d="M295.308,35.969c-7.956,0-10.197,6.051-4.482,11.878C298.333,55.355,311.556,35.969,295.308,35.969z"/>
	<path d="M35.969,3704.692c0,7.956,6.051,10.197,11.878,4.482C55.355,3701.667,35.969,3688.444,35.969,3704.692z"/>
	<path d="M3704.692,3964.031c7.956,0,10.197-6.051,4.482-11.878C3701.667,3944.645,3688.444,3964.031,3704.692,3964.031z"/>
	<path d="M3414.249,37.986c-6.723-14.903-3.025-34.513,5.939-31.599c3.137,1.008,7.62,8.74,9.861,17.032
		C3437.444,50.872,3425.229,62.19,3414.249,37.986z"/>
	<path d="M37.986,585.752c-14.903,6.723-34.513,3.025-31.599-5.939c1.008-3.138,8.74-7.62,17.032-9.861
		C50.872,562.556,62.19,574.77,37.986,585.752z"/>
	<path d="M585.752,3962.014c6.723,14.903,3.025,34.513-5.939,31.599c-3.138-1.009-7.62-8.74-9.861-17.032
		C562.556,3949.127,574.77,3937.81,585.752,3962.014z"/>
	<path d="M3962.014,3414.249c14.903-6.723,34.513-3.025,31.599,5.939c-1.009,3.137-8.74,7.62-17.032,9.861
		C3949.127,3437.444,3937.81,3425.229,3962.014,3414.249z"/>
	<path d="M3962.014,585.752c14.903,6.723,34.513,3.025,31.599-5.939c-1.009-3.138-8.74-7.62-17.032-9.861
		C3949.127,562.556,3937.81,574.77,3962.014,585.752z"/>
	<path d="M585.752,37.986c6.723-14.903,3.025-34.513-5.939-31.599c-3.138,1.008-7.62,8.74-9.861,17.032
		C562.556,50.872,574.77,62.19,585.752,37.986z"/>
	<path d="M37.986,3414.249c-14.903-6.723-34.513-3.025-31.599,5.939c1.008,3.137,8.74,7.62,17.032,9.861
		C50.872,3437.444,62.19,3425.229,37.986,3414.249z"/>
	<path d="M3414.249,3962.014c-6.723,14.903-3.025,34.513,5.939,31.599c3.137-1.009,7.62-8.74,9.861-17.032
		C3437.444,3949.127,3425.229,3937.81,3414.249,3962.014z"/>
	<path d="M3372.789,31.151c12.774,6.835,8.18,17.48-6.051,9.861C3354.075,34.064,3358.557,23.419,3372.789,31.151z"/>
	<path d="M31.151,627.211c6.835-12.774,17.48-8.18,9.861,6.051C34.064,645.925,23.419,641.443,31.151,627.211z"/>
	<path d="M627.211,3968.849c-12.774-6.835-8.18-17.48,6.051-9.861C645.925,3965.936,641.443,3976.581,627.211,3968.849z"/>
	<path d="M3968.849,3372.789c-6.835,12.774-17.48,8.18-9.861-6.051C3965.936,3354.075,3976.581,3358.557,3968.849,3372.789z"/>
	<path d="M3968.849,627.211c-6.835-12.774-17.48-8.18-9.861,6.051C3965.936,645.925,3976.581,641.443,3968.849,627.211z"/>
	<path d="M627.211,31.151c-12.774,6.835-8.18,17.48,6.051,9.861C645.925,34.064,641.443,23.419,627.211,31.151z"/>
	<path d="M31.151,3372.789c6.835,12.774,17.48,8.18,9.861-6.051C34.064,3354.075,23.419,3358.557,31.151,3372.789z"/>
	<path d="M3372.789,3968.849c12.774-6.835,8.18-17.48-6.051-9.861C3354.075,3965.936,3358.557,3976.581,3372.789,3968.849z"/>
	<path d="M3397.888,20.17c8.852,16.696,6.387,23.419-4.93,13.222C3372.564,15.015,3387.019-0.112,3397.888,20.17z"/>
	<path d="M20.17,602.112c16.696-8.852,23.419-6.387,13.222,4.93C15.015,627.436-0.112,612.981,20.17,602.112z"/>
	<path d="M602.112,3979.83c-8.852-16.696-6.387-23.419,4.93-13.222C627.436,3984.985,612.981,4000.112,602.112,3979.83z"/>
	<path d="M3979.83,3397.888c-16.696,8.852-23.419,6.387-13.222-4.93C3984.985,3372.564,4000.112,3387.019,3979.83,3397.888z"/>
	<path d="M3979.83,602.112c-16.696-8.852-23.419-6.387-13.222,4.93C3984.985,627.436,4000.112,612.981,3979.83,602.112z"/>
	<path d="M602.112,20.17c-8.852,16.696-6.387,23.419,4.93,13.222C627.436,15.015,612.981-0.112,602.112,20.17z"/>
	<path d="M20.17,3397.888c16.696,8.852,23.419,6.387,13.222-4.93C15.015,3372.564-0.112,3387.019,20.17,3397.888z"/>
	<path d="M3397.888,3979.83c8.852-16.696,6.387-23.419-4.93-13.222C3372.564,3984.985,3387.019,4000.112,3397.888,3979.83z"/>
	<path d="M3446.52,18.265c3.698-14.903,12.102-17.256,16.92-4.594c2.017,5.154-0.448,11.205-6.275,15.351
		C3445.287,37.762,3442.374,34.849,3446.52,18.265z"/>
	<path d="M18.265,553.48c-14.903-3.698-17.256-12.102-4.594-16.92c5.154-2.017,11.205,0.448,15.351,6.275
		C37.762,554.713,34.849,557.626,18.265,553.48z"/>
	<path d="M553.48,3981.735c-3.698,14.903-12.102,17.256-16.92,4.594c-2.017-5.154,0.448-11.205,6.275-15.351
		C554.713,3962.238,557.626,3965.151,553.48,3981.735z"/>
	<path d="M3981.735,3446.52c14.903,3.698,17.256,12.102,4.594,16.92c-5.154,2.017-11.205-0.448-15.351-6.275
		C3962.238,3445.287,3965.151,3442.374,3981.735,3446.52z"/>
	<path d="M3981.735,553.48c14.903-3.698,17.256-12.102,4.594-16.92c-5.154-2.017-11.205,0.448-15.351,6.275
		C3962.238,554.713,3965.151,557.626,3981.735,553.48z"/>
	<path d="M553.48,18.265c-3.698-14.903-12.102-17.256-16.92-4.594c-2.017,5.154,0.448,11.205,6.275,15.351
		C554.713,37.762,557.626,34.849,553.48,18.265z"/>
	<path d="M18.265,3446.52c-14.903,3.698-17.256,12.102-4.594,16.92c5.154,2.017,11.205-0.448,15.351-6.275
		C37.762,3445.287,34.849,3442.374,18.265,3446.52z"/>
	<path d="M3446.52,3981.735c3.698,14.903,12.102,17.256,16.92,4.594c2.017-5.154-0.448-11.205-6.275-15.351
		C3445.287,3962.238,3442.374,3965.151,3446.52,3981.735z"/>
	<path d="M3787.052,0c7.62,0,10.757,15.8,4.482,22.187C3781.001,32.608,3772.597,0,3787.052,0z"/>
	<path d="M0,212.948c0-7.62,15.8-10.757,22.187-4.482C32.608,218.999,0,227.403,0,212.948z"/>
	<path d="M212.948,4000c-7.62,0-10.757-15.8-4.482-22.187C218.999,3967.392,227.403,4000,212.948,4000z"/>
	<path d="M4000,3787.052c0,7.62-15.8,10.757-22.187,4.482C3967.392,3781.001,4000,3772.597,4000,3787.052z"/>
	<path d="M4000,212.948c0-7.62-15.8-10.757-22.187-4.482C3967.392,218.999,4000,227.403,4000,212.948z"/>
	<path d="M212.948,0c-7.62,0-10.757,15.8-4.482,22.187C218.999,32.608,227.403,0,212.948,0z"/>
	<path d="M0,3787.052c0,7.62,15.8,10.757,22.187,4.482C32.608,3781.001,0,3772.597,0,3787.052z"/>
	<path d="M3787.052,4000c7.62,0,10.757-15.8,4.482-22.187C3781.001,3967.392,3772.597,4000,3787.052,4000z"/>
</g>
</svg>
